<svg xmlns="http://www.w3.org/2000/svg" xmlns:xlink="http://www.w3.org/1999/xlink" width="2000" zoomAndPan="magnify" viewBox="0 0 1500 1499.999933" height="2000" preserveAspectRatio="xMidYMid meet" version="1.0"><defs><g/><clipPath id="172396dec3"><path d="M 898.445312 681.351562 L 992.335938 681.351562 L 992.335938 774.953125 L 898.445312 774.953125 Z M 898.445312 681.351562 " clip-rule="nonzero"/></clipPath><clipPath id="31b1989412"><path d="M 548.726562 681.351562 L 642.617188 681.351562 L 642.617188 774.953125 L 548.726562 774.953125 Z M 548.726562 681.351562 " clip-rule="nonzero"/></clipPath><clipPath id="a8dca3b9f5"><path d="M 405.023438 443.722656 L 934 443.722656 L 934 722 L 405.023438 722 Z M 405.023438 443.722656 " clip-rule="nonzero"/></clipPath></defs><g clip-path="url(#172396dec3)"><path fill="#29853a" d="M 992.175781 728.210938 C 992.175781 753.976562 971.289062 774.867188 945.519531 774.867188 C 919.753906 774.867188 898.867188 753.976562 898.867188 728.210938 C 898.867188 702.445312 919.753906 681.558594 945.519531 681.558594 C 971.289062 681.558594 992.175781 702.445312 992.175781 728.210938 " fill-opacity="1" fill-rule="nonzero"/></g><g clip-path="url(#31b1989412)"><path fill="#29853a" d="M 642.273438 728.210938 C 642.273438 753.976562 621.382812 774.867188 595.617188 774.867188 C 569.851562 774.867188 548.964844 753.976562 548.964844 728.210938 C 548.964844 702.445312 569.851562 681.558594 595.617188 681.558594 C 621.382812 681.558594 642.273438 702.445312 642.273438 728.210938 " fill-opacity="1" fill-rule="nonzero"/></g><path fill="#ffffff" d="M 609.75 728.210938 C 609.75 736.015625 603.421875 742.34375 595.617188 742.34375 C 587.8125 742.34375 581.484375 736.015625 581.484375 728.210938 C 581.484375 720.40625 587.8125 714.078125 595.617188 714.078125 C 603.421875 714.078125 609.75 720.40625 609.75 728.210938 " fill-opacity="1" fill-rule="nonzero"/><path fill="#ffffff" d="M 959.652344 728.210938 C 959.652344 736.015625 953.328125 742.34375 945.519531 742.34375 C 937.714844 742.34375 931.386719 736.015625 931.386719 728.210938 C 931.386719 720.40625 937.714844 714.078125 945.519531 714.078125 C 953.328125 714.078125 959.652344 720.40625 959.652344 728.210938 " fill-opacity="1" fill-rule="nonzero"/><path fill="#29853a" d="M 884.289062 754.453125 L 652.476562 754.453125 L 652.476562 736.957031 L 884.289062 736.957031 L 884.289062 754.453125 " fill-opacity="1" fill-rule="nonzero"/><path fill="#29853a" d="M 745.960938 587.167969 C 742.933594 608.652344 822.609375 602.414062 834.792969 600.992188 C 838.847656 600.519531 842.976562 599.867188 846.570312 597.929688 C 850.164062 595.992188 853.179688 592.539062 853.5625 588.476562 C 859.597656 589.835938 868.160156 594.769531 869.65625 601.410156 C 874.917969 624.777344 818.425781 623.101562 806.21875 623.195312 C 787.527344 623.34375 768.585938 623.464844 750.464844 618.867188 C 745.628906 617.640625 740.683594 615.96875 737.148438 612.445312 C 727.539062 602.871094 737.78125 592.671875 745.960938 587.167969 " fill-opacity="1" fill-rule="nonzero"/><g clip-path="url(#a8dca3b9f5)"><path fill="#29853a" d="M 434.78125 463.148438 L 466.492188 456.585938 L 583.285156 581.558594 C 582.820312 590.195312 582.316406 599.511719 581.832031 608.546875 Z M 922.292969 656.429688 C 917.578125 651.21875 913.054688 646.113281 907.503906 641.734375 C 896.152344 632.78125 881.535156 625.621094 866.707031 627.398438 C 853.792969 628.945312 841.824219 634.644531 828.679688 636.160156 C 815.304688 637.703125 801.792969 637.921875 788.355469 637.160156 C 770.992188 636.175781 740.722656 635.835938 726.015625 625.539062 C 721.859375 622.628906 718.363281 618.871094 714.382812 615.71875 C 705.5 608.6875 696.039062 606.734375 685.199219 605.054688 C 681.066406 604.417969 678.609375 603.941406 676.847656 603.152344 C 672.777344 601.332031 670.609375 596.191406 668.148438 592.777344 C 664.726562 588.03125 660.855469 583.597656 656.648438 579.527344 C 647.445312 570.621094 636.570312 563.449219 624.746094 558.53125 C 621.265625 557.085938 585.253906 545.085938 585.273438 544.730469 C 585.269531 544.757812 584.855469 552.449219 584.246094 563.777344 L 474.148438 443.464844 L 405.253906 450.023438 L 581.113281 621.898438 C 580.078125 641.066406 579.257812 656.257812 579.257812 656.257812 C 612.9375 661.789062 646.535156 667.632812 680.308594 672.230469 C 691.382812 673.738281 702.847656 676.980469 710.609375 685.015625 C 719.53125 694.257812 721.332031 707.871094 718.066406 719.898438 C 745.132812 719.230469 772.433594 719.828125 799.558594 719.828125 C 805.148438 719.828125 877.578125 722.777344 878.316406 719.765625 C 889.820312 672.808594 933.515625 668.917969 933.515625 668.917969 C 932.148438 669.039062 923.460938 657.71875 922.292969 656.429688 " fill-opacity="1" fill-rule="nonzero"/></g><g fill="#000000" fill-opacity="1"><g transform="translate(340.794379, 1004.02127)"><g><path d="M 175.84375 -139.25 L 175.84375 -135.328125 C 171.644531 -135.191406 168.492188 -134.695312 166.390625 -133.84375 C 164.296875 -132.988281 162.890625 -131.414062 162.171875 -129.125 C 161.453125 -126.832031 161.09375 -123.257812 161.09375 -118.40625 L 161.09375 -20.84375 C 161.09375 -16.125 161.453125 -12.582031 162.171875 -10.21875 C 162.890625 -7.863281 164.296875 -6.289062 166.390625 -5.5 C 168.492188 -4.71875 171.644531 -4.195312 175.84375 -3.9375 L 175.84375 0 C 172.164062 -0.257812 167.539062 -0.421875 161.96875 -0.484375 C 156.394531 -0.554688 150.722656 -0.59375 144.953125 -0.59375 C 138.660156 -0.59375 132.757812 -0.554688 127.25 -0.484375 C 121.75 -0.421875 117.289062 -0.257812 113.875 0 L 113.875 -3.9375 C 118.332031 -4.195312 121.707031 -4.71875 124 -5.5 C 126.300781 -6.289062 127.84375 -7.863281 128.625 -10.21875 C 129.414062 -12.582031 129.8125 -16.125 129.8125 -20.84375 L 129.8125 -127.25 L 131.1875 -127.25 L 82.40625 0.203125 L 79.265625 0.203125 L 26.15625 -126.46875 L 26.15625 -32.25 C 26.15625 -25.039062 26.546875 -19.5 27.328125 -15.625 C 28.117188 -11.757812 29.859375 -9.007812 32.546875 -7.375 C 35.234375 -5.738281 39.460938 -4.59375 45.234375 -3.9375 L 45.234375 0 C 42.742188 -0.257812 39.46875 -0.421875 35.40625 -0.484375 C 31.34375 -0.554688 27.539062 -0.59375 24 -0.59375 C 20.976562 -0.59375 17.894531 -0.554688 14.75 -0.484375 C 11.601562 -0.421875 8.984375 -0.257812 6.890625 0 L 6.890625 -3.9375 C 11.078125 -4.59375 14.21875 -5.707031 16.3125 -7.28125 C 18.414062 -8.851562 19.828125 -11.441406 20.546875 -15.046875 C 21.273438 -18.648438 21.640625 -23.597656 21.640625 -29.890625 L 21.640625 -118.40625 C 21.640625 -123.257812 21.273438 -126.832031 20.546875 -129.125 C 19.828125 -131.414062 18.382812 -132.988281 16.21875 -133.84375 C 14.0625 -134.695312 10.953125 -135.191406 6.890625 -135.328125 L 6.890625 -139.25 C 8.984375 -139.125 11.601562 -138.992188 14.75 -138.859375 C 17.894531 -138.734375 20.976562 -138.671875 24 -138.671875 C 29.632812 -138.671875 35.171875 -138.734375 40.609375 -138.859375 C 46.054688 -138.992188 50.878906 -139.125 55.078125 -139.25 L 96.375 -39.53125 L 91.453125 -35.015625 L 131 -138.671875 C 133.226562 -138.671875 135.519531 -138.671875 137.875 -138.671875 C 140.238281 -138.671875 142.597656 -138.671875 144.953125 -138.671875 C 150.722656 -138.671875 156.394531 -138.734375 161.96875 -138.859375 C 167.539062 -138.992188 172.164062 -139.125 175.84375 -139.25 Z M 175.84375 -139.25 "/></g></g></g><g fill="#000000" fill-opacity="1"><g transform="translate(508.365237, 1004.02127)"><g><path d="M 78.078125 -142.015625 C 91.984375 -142.015625 104.144531 -139.191406 114.5625 -133.546875 C 124.988281 -127.910156 133.085938 -119.8125 138.859375 -109.25 C 144.628906 -98.695312 147.515625 -85.882812 147.515625 -70.8125 C 147.515625 -56.125 144.5625 -43.269531 138.65625 -32.25 C 132.757812 -21.238281 124.53125 -12.648438 113.96875 -6.484375 C 103.414062 -0.328125 91.390625 2.75 77.890625 2.75 C 63.992188 2.75 51.832031 -0.0664062 41.40625 -5.703125 C 30.976562 -11.335938 22.878906 -19.46875 17.109375 -30.09375 C 11.335938 -40.71875 8.453125 -53.503906 8.453125 -68.453125 C 8.453125 -83.128906 11.4375 -95.972656 17.40625 -106.984375 C 23.375 -118.003906 31.566406 -126.597656 41.984375 -132.765625 C 52.410156 -138.929688 64.441406 -142.015625 78.078125 -142.015625 Z M 77.296875 -138.46875 C 69.953125 -138.46875 63.554688 -135.515625 58.109375 -129.609375 C 52.671875 -123.710938 48.476562 -115.582031 45.53125 -105.21875 C 42.582031 -94.863281 41.109375 -82.867188 41.109375 -69.234375 C 41.109375 -55.335938 42.78125 -43.238281 46.125 -32.9375 C 49.46875 -22.644531 53.988281 -14.710938 59.6875 -9.140625 C 65.394531 -3.566406 71.722656 -0.78125 78.671875 -0.78125 C 86.015625 -0.78125 92.40625 -3.726562 97.84375 -9.625 C 103.289062 -15.53125 107.488281 -23.695312 110.4375 -34.125 C 113.382812 -44.550781 114.859375 -56.515625 114.859375 -70.015625 C 114.859375 -84.046875 113.1875 -96.175781 109.84375 -106.40625 C 106.5 -116.632812 101.972656 -124.535156 96.265625 -130.109375 C 90.566406 -135.679688 84.242188 -138.46875 77.296875 -138.46875 Z M 77.296875 -138.46875 "/></g></g></g><g fill="#000000" fill-opacity="1"><g transform="translate(649.581015, 1004.02127)"><g><path d="M 6.6875 -139.25 C 9.96875 -139.125 14.394531 -138.992188 19.96875 -138.859375 C 25.539062 -138.734375 31.078125 -138.671875 36.578125 -138.671875 C 42.878906 -138.671875 48.976562 -138.734375 54.875 -138.859375 C 60.78125 -138.992188 64.976562 -139.0625 67.46875 -139.0625 C 79.65625 -139.0625 89.78125 -137.71875 97.84375 -135.03125 C 105.914062 -132.34375 111.953125 -128.441406 115.953125 -123.328125 C 119.953125 -118.210938 121.953125 -112.046875 121.953125 -104.828125 C 121.953125 -100.367188 121.03125 -95.878906 119.1875 -91.359375 C 117.351562 -86.835938 114.238281 -82.640625 109.84375 -78.765625 C 105.457031 -74.898438 99.457031 -71.820312 91.84375 -69.53125 C 84.238281 -67.238281 74.671875 -66.09375 63.140625 -66.09375 L 44.25 -66.09375 L 44.25 -70.015625 L 61.171875 -70.015625 C 68.910156 -70.015625 74.773438 -71.488281 78.765625 -74.4375 C 82.765625 -77.394531 85.519531 -81.332031 87.03125 -86.25 C 88.539062 -91.164062 89.296875 -96.640625 89.296875 -102.671875 C 89.296875 -113.023438 87.457031 -121.054688 83.78125 -126.765625 C 80.113281 -132.472656 73.820312 -135.328125 64.90625 -135.328125 C 59.789062 -135.328125 56.476562 -134.210938 54.96875 -131.984375 C 53.46875 -129.753906 52.71875 -125.226562 52.71875 -118.40625 L 52.71875 -20.84375 C 52.71875 -16.125 53.078125 -12.582031 53.796875 -10.21875 C 54.515625 -7.863281 55.921875 -6.289062 58.015625 -5.5 C 60.117188 -4.71875 63.269531 -4.195312 67.46875 -3.9375 L 67.46875 0 C 63.925781 -0.257812 59.46875 -0.421875 54.09375 -0.484375 C 48.71875 -0.554688 43.273438 -0.59375 37.765625 -0.59375 C 31.472656 -0.59375 25.539062 -0.554688 19.96875 -0.484375 C 14.394531 -0.421875 9.96875 -0.257812 6.6875 0 L 6.6875 -3.9375 C 10.882812 -4.195312 14.03125 -4.71875 16.125 -5.5 C 18.226562 -6.289062 19.640625 -7.863281 20.359375 -10.21875 C 21.078125 -12.582031 21.4375 -16.125 21.4375 -20.84375 L 21.4375 -118.40625 C 21.4375 -123.257812 21.078125 -126.832031 20.359375 -129.125 C 19.640625 -131.414062 18.195312 -132.988281 16.03125 -133.84375 C 13.863281 -134.695312 10.75 -135.191406 6.6875 -135.328125 Z M 43.859375 -69.4375 C 49.492188 -69.300781 54.375 -69.035156 58.5 -68.640625 C 62.632812 -68.242188 66.273438 -67.882812 69.421875 -67.5625 C 72.578125 -67.238281 75.398438 -67.007812 77.890625 -66.875 C 89.816406 -65.820312 98.632812 -63.265625 104.34375 -59.203125 C 110.050781 -55.140625 113.753906 -49.039062 115.453125 -40.90625 L 119.984375 -20.65625 C 121.160156 -15.40625 122.40625 -11.726562 123.71875 -9.625 C 125.03125 -7.53125 126.929688 -6.484375 129.421875 -6.484375 C 131.128906 -6.617188 132.539062 -7.046875 133.65625 -7.765625 C 134.769531 -8.484375 135.976562 -9.566406 137.28125 -11.015625 L 140.046875 -8.65625 C 136.503906 -4.59375 132.695312 -1.675781 128.625 0.09375 C 124.5625 1.863281 119.644531 2.75 113.875 2.75 C 106.800781 2.75 100.96875 1.242188 96.375 -1.765625 C 91.789062 -4.785156 88.773438 -10.359375 87.328125 -18.484375 L 83.78125 -38.15625 C 82.863281 -43.664062 81.75 -48.484375 80.4375 -52.609375 C 79.132812 -56.742188 77.332031 -60.023438 75.03125 -62.453125 C 72.738281 -64.878906 69.5625 -66.09375 65.5 -66.09375 L 44.25 -66.09375 Z M 43.859375 -69.4375 "/></g></g></g><g fill="#000000" fill-opacity="1"><g transform="translate(770.932162, 1004.02127)"><g><path d="M 79.65625 -142.015625 C 88.570312 -142.015625 95.847656 -140.765625 101.484375 -138.265625 C 107.128906 -135.773438 112.179688 -132.757812 116.640625 -129.21875 C 118.210938 -128.039062 119.519531 -127.453125 120.5625 -127.453125 C 123.0625 -127.453125 124.703125 -131.382812 125.484375 -139.25 L 130.015625 -139.25 C 129.742188 -134.132812 129.539062 -127.9375 129.40625 -120.65625 C 129.28125 -113.382812 129.21875 -103.71875 129.21875 -91.65625 L 124.703125 -91.65625 C 123.785156 -99.519531 122.375 -106.367188 120.46875 -112.203125 C 118.570312 -118.046875 115.066406 -123.0625 109.953125 -127.25 C 106.804688 -130.269531 102.90625 -132.628906 98.25 -134.328125 C 93.59375 -136.035156 88.90625 -136.890625 84.1875 -136.890625 C 76.96875 -136.890625 70.800781 -135.019531 65.6875 -131.28125 C 60.570312 -127.550781 56.375 -122.472656 53.09375 -116.046875 C 49.820312 -109.617188 47.398438 -102.375 45.828125 -94.3125 C 44.253906 -86.25 43.46875 -77.890625 43.46875 -69.234375 C 43.46875 -45.628906 46.710938 -28.382812 53.203125 -17.5 C 59.691406 -6.625 69.035156 -1.1875 81.234375 -1.1875 C 84.378906 -1.1875 87.128906 -1.578125 89.484375 -2.359375 C 91.847656 -3.148438 93.753906 -4.066406 95.203125 -5.109375 C 97.035156 -6.421875 98.28125 -7.832031 98.9375 -9.34375 C 99.59375 -10.851562 99.921875 -12.851562 99.921875 -15.34375 L 99.921875 -34.609375 C 99.921875 -40.648438 99.425781 -45.144531 98.4375 -48.09375 C 97.457031 -51.039062 95.523438 -53.035156 92.640625 -54.078125 C 89.753906 -55.128906 85.554688 -55.722656 80.046875 -55.859375 L 80.046875 -59.796875 C 82.804688 -59.660156 86.117188 -59.5625 89.984375 -59.5 C 93.847656 -59.4375 97.878906 -59.367188 102.078125 -59.296875 C 106.273438 -59.234375 110.144531 -59.203125 113.6875 -59.203125 C 119.195312 -59.203125 124.242188 -59.265625 128.828125 -59.390625 C 133.421875 -59.523438 137.160156 -59.660156 140.046875 -59.796875 L 140.046875 -55.859375 C 137.546875 -55.722656 135.671875 -55.257812 134.421875 -54.46875 C 133.179688 -53.6875 132.332031 -52.113281 131.875 -49.75 C 131.414062 -47.394531 131.1875 -43.789062 131.1875 -38.9375 L 131.1875 0 L 127.25 0 C 127.125 -2.226562 126.632812 -4.65625 125.78125 -7.28125 C 124.925781 -9.90625 123.515625 -11.21875 121.546875 -11.21875 C 120.628906 -11.21875 119.414062 -10.984375 117.90625 -10.515625 C 116.40625 -10.054688 114.082031 -8.910156 110.9375 -7.078125 C 106.082031 -4.328125 100.96875 -2 95.59375 -0.09375 C 90.21875 1.800781 84.578125 2.75 78.671875 2.75 C 63.460938 2.75 50.613281 -0.0664062 40.125 -5.703125 C 29.632812 -11.335938 21.734375 -19.429688 16.421875 -29.984375 C 11.109375 -40.546875 8.453125 -53.234375 8.453125 -68.046875 C 8.453125 -82.992188 11.5 -95.972656 17.59375 -106.984375 C 23.695312 -118.003906 32.09375 -126.597656 42.78125 -132.765625 C 53.46875 -138.929688 65.757812 -142.015625 79.65625 -142.015625 Z M 79.65625 -142.015625 "/></g></g></g><g fill="#000000" fill-opacity="1"><g transform="translate(900.740516, 1004.02127)"><g><path d="M 72.375 -139.640625 L 120.171875 -16.515625 C 122.003906 -11.796875 124.066406 -8.550781 126.359375 -6.78125 C 128.660156 -5.007812 130.726562 -4.0625 132.5625 -3.9375 L 132.5625 0 C 128.632812 -0.257812 124.015625 -0.421875 118.703125 -0.484375 C 113.390625 -0.554688 108.046875 -0.59375 102.671875 -0.59375 C 96.640625 -0.59375 90.9375 -0.554688 85.5625 -0.484375 C 80.1875 -0.421875 75.925781 -0.257812 72.78125 0 L 72.78125 -3.9375 C 79.46875 -4.195312 83.691406 -5.34375 85.453125 -7.375 C 87.222656 -9.40625 86.800781 -13.765625 84.1875 -20.453125 L 50.75 -111.921875 L 54.28125 -117.03125 L 24.390625 -39.140625 C 21.503906 -31.929688 19.765625 -26.03125 19.171875 -21.4375 C 18.585938 -16.851562 18.914062 -13.3125 20.15625 -10.8125 C 21.40625 -8.320312 23.4375 -6.582031 26.25 -5.59375 C 29.070312 -4.613281 32.453125 -4.0625 36.390625 -3.9375 L 36.390625 0 C 32.054688 -0.257812 27.921875 -0.421875 23.984375 -0.484375 C 20.054688 -0.554688 16.0625 -0.59375 12 -0.59375 C 9.113281 -0.59375 6.390625 -0.554688 3.828125 -0.484375 C 1.273438 -0.421875 -0.984375 -0.257812 -2.953125 0 L -2.953125 -3.9375 C -0.191406 -4.457031 2.625 -6.222656 5.5 -9.234375 C 8.382812 -12.253906 11.207031 -17.367188 13.96875 -24.578125 L 58.8125 -139.640625 C 60.90625 -139.515625 63.164062 -139.453125 65.59375 -139.453125 C 68.019531 -139.453125 70.28125 -139.515625 72.375 -139.640625 Z M 86.15625 -56.640625 L 86.15625 -52.71875 L 27.53125 -52.71875 L 29.5 -56.640625 Z M 86.15625 -56.640625 "/></g></g></g><g fill="#000000" fill-opacity="1"><g transform="translate(1017.174664, 1004.02127)"><g><path d="M 136.296875 -139.25 L 136.296875 -135.328125 C 132.109375 -134.796875 128.960938 -133.707031 126.859375 -132.0625 C 124.765625 -130.425781 123.351562 -127.835938 122.625 -124.296875 C 121.90625 -120.765625 121.546875 -115.785156 121.546875 -109.359375 L 121.546875 0.390625 C 119.972656 0.265625 118.367188 0.203125 116.734375 0.203125 C 115.097656 0.203125 113.359375 0.265625 111.515625 0.390625 L 26.15625 -107.78125 L 26.15625 -32.25 C 26.15625 -25.039062 26.546875 -19.5 27.328125 -15.625 C 28.117188 -11.757812 29.859375 -9.007812 32.546875 -7.375 C 35.234375 -5.738281 39.460938 -4.59375 45.234375 -3.9375 L 45.234375 0 C 42.742188 -0.257812 39.46875 -0.421875 35.40625 -0.484375 C 31.34375 -0.554688 27.539062 -0.59375 24 -0.59375 C 20.976562 -0.59375 17.894531 -0.554688 14.75 -0.484375 C 11.601562 -0.421875 8.984375 -0.257812 6.890625 0 L 6.890625 -3.9375 C 11.078125 -4.59375 14.21875 -5.707031 16.3125 -7.28125 C 18.414062 -8.851562 19.828125 -11.441406 20.546875 -15.046875 C 21.273438 -18.648438 21.640625 -23.597656 21.640625 -29.890625 L 21.640625 -118.40625 C 21.640625 -123.257812 21.273438 -126.832031 20.546875 -129.125 C 19.828125 -131.414062 18.382812 -132.988281 16.21875 -133.84375 C 14.0625 -134.695312 10.953125 -135.191406 6.890625 -135.328125 L 6.890625 -139.25 C 8.984375 -139.125 11.601562 -138.992188 14.75 -138.859375 C 17.894531 -138.734375 20.976562 -138.671875 24 -138.671875 C 27.144531 -138.671875 30.160156 -138.734375 33.046875 -138.859375 C 35.929688 -138.992188 38.550781 -139.125 40.90625 -139.25 L 117.03125 -45.4375 L 117.03125 -107 C 117.03125 -114.207031 116.632812 -119.742188 115.84375 -123.609375 C 115.0625 -127.484375 113.328125 -130.269531 110.640625 -131.96875 C 107.953125 -133.675781 103.722656 -134.796875 97.953125 -135.328125 L 97.953125 -139.25 C 100.441406 -139.125 103.71875 -138.992188 107.78125 -138.859375 C 111.84375 -138.734375 115.644531 -138.671875 119.1875 -138.671875 C 122.332031 -138.671875 125.445312 -138.734375 128.53125 -138.859375 C 131.613281 -138.992188 134.203125 -139.125 136.296875 -139.25 Z M 136.296875 -139.25 "/></g></g></g><g fill="#000000" fill-opacity="1"><g transform="translate(517.389218, 1059.352977)"><g><path d="M 13.5625 -32.328125 L 13.5625 -31.40625 C 12.519531 -31.375 11.734375 -31.257812 11.203125 -31.0625 C 10.671875 -30.863281 10.3125 -30.5 10.125 -29.96875 C 9.945312 -29.4375 9.859375 -28.609375 9.859375 -27.484375 L 9.859375 -4.84375 C 9.859375 -3.75 9.945312 -2.925781 10.125 -2.375 C 10.3125 -1.820312 10.671875 -1.460938 11.203125 -1.296875 C 11.734375 -1.128906 12.519531 -1.046875 13.5625 -1.046875 L 16.890625 -1.046875 C 18.316406 -1.046875 19.476562 -1.195312 20.375 -1.5 C 21.28125 -1.8125 22 -2.289062 22.53125 -2.9375 C 23.0625 -3.59375 23.460938 -4.46875 23.734375 -5.5625 C 24.015625 -6.664062 24.226562 -8.007812 24.375 -9.59375 L 25.4375 -9.59375 C 25.34375 -8.644531 25.296875 -7.394531 25.296875 -5.84375 C 25.296875 -5.257812 25.316406 -4.425781 25.359375 -3.34375 C 25.410156 -2.269531 25.492188 -1.15625 25.609375 0 C 24.054688 -0.0625 22.304688 -0.0976562 20.359375 -0.109375 C 18.410156 -0.128906 16.675781 -0.140625 15.15625 -0.140625 C 14.488281 -0.140625 13.628906 -0.140625 12.578125 -0.140625 C 11.523438 -0.140625 10.390625 -0.128906 9.171875 -0.109375 C 7.953125 -0.0976562 6.71875 -0.0820312 5.46875 -0.0625 C 4.226562 -0.0507812 3.046875 -0.03125 1.921875 0 L 1.921875 -0.90625 C 2.953125 -0.96875 3.734375 -1.085938 4.265625 -1.265625 C 4.796875 -1.453125 5.148438 -1.820312 5.328125 -2.375 C 5.515625 -2.925781 5.609375 -3.75 5.609375 -4.84375 L 5.609375 -27.484375 C 5.609375 -28.609375 5.515625 -29.4375 5.328125 -29.96875 C 5.148438 -30.5 4.796875 -30.863281 4.265625 -31.0625 C 3.734375 -31.257812 2.953125 -31.375 1.921875 -31.40625 L 1.921875 -32.328125 C 2.554688 -32.296875 3.390625 -32.265625 4.421875 -32.234375 C 5.460938 -32.203125 6.578125 -32.1875 7.765625 -32.1875 C 8.828125 -32.1875 9.882812 -32.203125 10.9375 -32.234375 C 11.988281 -32.265625 12.863281 -32.296875 13.5625 -32.328125 Z M 13.5625 -32.328125 "/></g></g></g><g fill="#000000" fill-opacity="1"><g transform="translate(553.779183, 1059.352977)"><g><path d="M 14.75 -32.546875 L 25.890625 -3.828125 C 26.347656 -2.671875 26.863281 -1.898438 27.4375 -1.515625 C 28.019531 -1.140625 28.550781 -0.9375 29.03125 -0.90625 L 29.03125 0 C 28.425781 -0.0625 27.679688 -0.0976562 26.796875 -0.109375 C 25.910156 -0.128906 25.03125 -0.140625 24.15625 -0.140625 C 22.96875 -0.140625 21.851562 -0.128906 20.8125 -0.109375 C 19.78125 -0.0976562 18.945312 -0.0625 18.3125 0 L 18.3125 -0.90625 C 19.863281 -0.96875 20.851562 -1.234375 21.28125 -1.703125 C 21.707031 -2.179688 21.613281 -3.195312 21 -4.75 L 12.515625 -27.4375 L 13.234375 -28.03125 L 5.296875 -7.390625 C 4.804688 -6.171875 4.515625 -5.144531 4.421875 -4.3125 C 4.335938 -3.476562 4.421875 -2.816406 4.671875 -2.328125 C 4.929688 -1.835938 5.375 -1.484375 6 -1.265625 C 6.625 -1.054688 7.410156 -0.9375 8.359375 -0.90625 L 8.359375 0 C 7.503906 -0.0625 6.613281 -0.0976562 5.6875 -0.109375 C 4.757812 -0.128906 3.898438 -0.140625 3.109375 -0.140625 C 2.347656 -0.140625 1.695312 -0.128906 1.15625 -0.109375 C 0.625 -0.0976562 0.132812 -0.0625 -0.3125 0 L -0.3125 -0.90625 C 0.289062 -1.0625 0.910156 -1.421875 1.546875 -1.984375 C 2.191406 -2.546875 2.769531 -3.515625 3.28125 -4.890625 L 14.015625 -32.546875 C 14.140625 -32.546875 14.257812 -32.546875 14.375 -32.546875 C 14.5 -32.546875 14.625 -32.546875 14.75 -32.546875 Z M 20.3125 -13.15625 L 20.3125 -12.234375 L 6.71875 -12.234375 L 7.171875 -13.15625 Z M 20.3125 -13.15625 "/></g></g></g><g fill="#000000" fill-opacity="1"><g transform="translate(592.086709, 1059.352977)"><g><path d="M 41.40625 -32.328125 L 41.40625 -31.40625 C 40.832031 -31.289062 40.191406 -30.953125 39.484375 -30.390625 C 38.785156 -29.828125 38.222656 -28.84375 37.796875 -27.4375 L 29.171875 0.234375 C 29.109375 0.234375 29.046875 0.234375 28.984375 0.234375 C 28.929688 0.234375 28.875 0.234375 28.8125 0.234375 C 28.75 0.234375 28.6875 0.234375 28.625 0.234375 C 28.5625 0.234375 28.5 0.234375 28.4375 0.234375 L 18.765625 -28.484375 C 18.367188 -29.671875 17.925781 -30.445312 17.4375 -30.8125 C 16.945312 -31.175781 16.492188 -31.375 16.078125 -31.40625 L 16.078125 -32.328125 C 16.617188 -32.296875 17.300781 -32.265625 18.125 -32.234375 C 18.945312 -32.203125 19.738281 -32.1875 20.5 -32.1875 C 21.6875 -32.1875 22.796875 -32.203125 23.828125 -32.234375 C 24.867188 -32.265625 25.707031 -32.296875 26.34375 -32.328125 L 26.34375 -31.40625 C 25.425781 -31.375 24.703125 -31.28125 24.171875 -31.125 C 23.640625 -30.976562 23.332031 -30.644531 23.25 -30.125 C 23.175781 -29.613281 23.328125 -28.765625 23.703125 -27.578125 L 30.5 -6.53125 L 29.859375 -5.984375 L 35.890625 -24.921875 C 36.429688 -26.597656 36.679688 -27.898438 36.640625 -28.828125 C 36.597656 -29.753906 36.253906 -30.40625 35.609375 -30.78125 C 34.972656 -31.164062 34.015625 -31.375 32.734375 -31.40625 L 32.734375 -32.328125 C 33.617188 -32.296875 34.515625 -32.265625 35.421875 -32.234375 C 36.335938 -32.203125 37.191406 -32.1875 37.984375 -32.1875 C 38.773438 -32.1875 39.425781 -32.203125 39.9375 -32.234375 C 40.457031 -32.265625 40.945312 -32.296875 41.40625 -32.328125 Z M 9.5 -32.328125 L 9.5 -31.40625 C 8.707031 -31.34375 8.132812 -31.191406 7.78125 -30.953125 C 7.4375 -30.710938 7.269531 -30.320312 7.28125 -29.78125 C 7.300781 -29.25 7.460938 -28.515625 7.765625 -27.578125 L 14.84375 -5.984375 L 13.703125 -4.84375 L 20.09375 -25.25 L 20.78125 -24.15625 L 13.234375 0.234375 C 13.179688 0.234375 13.125 0.234375 13.0625 0.234375 C 13 0.234375 12.9375 0.234375 12.875 0.234375 C 12.8125 0.234375 12.75 0.234375 12.6875 0.234375 C 12.625 0.234375 12.566406 0.234375 12.515625 0.234375 L 2.828125 -28.484375 C 2.429688 -29.671875 1.925781 -30.445312 1.3125 -30.8125 C 0.707031 -31.175781 0.164062 -31.375 -0.3125 -31.40625 L -0.3125 -32.328125 C 0.289062 -32.296875 1.039062 -32.265625 1.9375 -32.234375 C 2.832031 -32.203125 3.707031 -32.1875 4.5625 -32.1875 C 5.570312 -32.1875 6.507812 -32.203125 7.375 -32.234375 C 8.238281 -32.265625 8.945312 -32.296875 9.5 -32.328125 Z M 9.5 -32.328125 "/></g></g></g><g fill="#000000" fill-opacity="1"><g transform="translate(642.949696, 1059.352977)"><g><path d="M 30.59375 -32.328125 L 30.59375 -31.40625 C 29.550781 -31.375 28.765625 -31.222656 28.234375 -30.953125 C 27.703125 -30.679688 27.34375 -30.238281 27.15625 -29.625 C 26.976562 -29.019531 26.890625 -28.15625 26.890625 -27.03125 L 26.890625 0.234375 C 26.710938 0.234375 26.535156 0.234375 26.359375 0.234375 C 26.191406 0.234375 26.019531 0.234375 25.84375 0.234375 L 6.671875 -29.40625 L 6.671875 -5.296875 C 6.671875 -4.203125 6.769531 -3.34375 6.96875 -2.71875 C 7.164062 -2.09375 7.5625 -1.648438 8.15625 -1.390625 C 8.75 -1.128906 9.640625 -0.96875 10.828125 -0.90625 L 10.828125 0 C 10.273438 -0.0625 9.554688 -0.0976562 8.671875 -0.109375 C 7.785156 -0.128906 6.945312 -0.140625 6.15625 -0.140625 C 5.394531 -0.140625 4.625 -0.128906 3.84375 -0.109375 C 3.070312 -0.0976562 2.429688 -0.0625 1.921875 0 L 1.921875 -0.90625 C 2.953125 -0.96875 3.734375 -1.128906 4.265625 -1.390625 C 4.796875 -1.648438 5.148438 -2.09375 5.328125 -2.71875 C 5.515625 -3.34375 5.609375 -4.203125 5.609375 -5.296875 L 5.609375 -27.484375 C 5.609375 -28.609375 5.515625 -29.4375 5.328125 -29.96875 C 5.148438 -30.5 4.796875 -30.863281 4.265625 -31.0625 C 3.734375 -31.257812 2.953125 -31.375 1.921875 -31.40625 L 1.921875 -32.328125 C 2.429688 -32.296875 3.070312 -32.265625 3.84375 -32.234375 C 4.625 -32.203125 5.394531 -32.1875 6.15625 -32.1875 C 6.832031 -32.1875 7.472656 -32.203125 8.078125 -32.234375 C 8.691406 -32.265625 9.238281 -32.296875 9.71875 -32.328125 L 25.84375 -7.484375 L 25.84375 -27.03125 C 25.84375 -28.15625 25.742188 -29.019531 25.546875 -29.625 C 25.347656 -30.238281 24.953125 -30.679688 24.359375 -30.953125 C 23.765625 -31.222656 22.875 -31.375 21.6875 -31.40625 L 21.6875 -32.328125 C 22.238281 -32.296875 22.960938 -32.265625 23.859375 -32.234375 C 24.753906 -32.203125 25.582031 -32.1875 26.34375 -32.1875 C 27.132812 -32.1875 27.914062 -32.203125 28.6875 -32.234375 C 29.46875 -32.265625 30.101562 -32.296875 30.59375 -32.328125 Z M 30.59375 -32.328125 "/></g></g></g><g fill="#000000" fill-opacity="1"><g transform="translate(684.727093, 1059.352977)"><g/></g></g><g fill="#000000" fill-opacity="1"><g transform="translate(705.639613, 1059.352977)"><g><path d="M 11.6875 -32.828125 C 13.207031 -32.828125 14.363281 -32.648438 15.15625 -32.296875 C 15.945312 -31.953125 16.648438 -31.566406 17.265625 -31.140625 C 17.628906 -30.921875 17.921875 -30.757812 18.140625 -30.65625 C 18.367188 -30.550781 18.59375 -30.5 18.8125 -30.5 C 19.113281 -30.5 19.332031 -30.664062 19.46875 -31 C 19.601562 -31.332031 19.71875 -31.832031 19.8125 -32.5 L 20.859375 -32.5 C 20.828125 -31.988281 20.789062 -31.375 20.75 -30.65625 C 20.707031 -29.9375 20.675781 -28.988281 20.65625 -27.8125 C 20.644531 -26.644531 20.640625 -25.101562 20.640625 -23.1875 L 19.59375 -23.1875 C 19.5 -24.65625 19.175781 -26.054688 18.625 -27.390625 C 18.082031 -28.734375 17.285156 -29.828125 16.234375 -30.671875 C 15.179688 -31.523438 13.800781 -31.953125 12.09375 -31.953125 C 10.476562 -31.953125 9.144531 -31.460938 8.09375 -30.484375 C 7.050781 -29.515625 6.53125 -28.238281 6.53125 -26.65625 C 6.53125 -25.289062 6.878906 -24.144531 7.578125 -23.21875 C 8.273438 -22.289062 9.207031 -21.453125 10.375 -20.703125 C 11.550781 -19.960938 12.828125 -19.164062 14.203125 -18.3125 C 15.785156 -17.332031 17.191406 -16.363281 18.421875 -15.40625 C 19.648438 -14.445312 20.625 -13.390625 21.34375 -12.234375 C 22.0625 -11.078125 22.421875 -9.675781 22.421875 -8.03125 C 22.421875 -6.082031 21.976562 -4.46875 21.09375 -3.1875 C 20.207031 -1.914062 19.035156 -0.957031 17.578125 -0.3125 C 16.117188 0.320312 14.503906 0.640625 12.734375 0.640625 C 11.117188 0.640625 9.835938 0.457031 8.890625 0.09375 C 7.953125 -0.269531 7.148438 -0.648438 6.484375 -1.046875 C 5.816406 -1.472656 5.300781 -1.6875 4.9375 -1.6875 C 4.625 -1.6875 4.398438 -1.519531 4.265625 -1.1875 C 4.128906 -0.851562 4.015625 -0.351562 3.921875 0.3125 L 2.875 0.3125 C 2.9375 -0.320312 2.972656 -1.070312 2.984375 -1.9375 C 3.003906 -2.800781 3.019531 -3.929688 3.03125 -5.328125 C 3.050781 -6.734375 3.0625 -8.503906 3.0625 -10.640625 L 4.109375 -10.640625 C 4.234375 -8.816406 4.578125 -7.113281 5.140625 -5.53125 C 5.703125 -3.945312 6.566406 -2.675781 7.734375 -1.71875 C 8.910156 -0.757812 10.472656 -0.28125 12.421875 -0.28125 C 13.421875 -0.28125 14.367188 -0.484375 15.265625 -0.890625 C 16.171875 -1.296875 16.910156 -1.945312 17.484375 -2.84375 C 18.066406 -3.75 18.359375 -4.914062 18.359375 -6.34375 C 18.359375 -7.59375 18.0625 -8.679688 17.46875 -9.609375 C 16.875 -10.535156 16.039062 -11.398438 14.96875 -12.203125 C 13.90625 -13.015625 12.660156 -13.847656 11.234375 -14.703125 C 9.796875 -15.585938 8.453125 -16.484375 7.203125 -17.390625 C 5.960938 -18.304688 4.96875 -19.363281 4.21875 -20.5625 C 3.476562 -21.769531 3.109375 -23.222656 3.109375 -24.921875 C 3.109375 -26.722656 3.507812 -28.207031 4.3125 -29.375 C 5.125 -30.550781 6.179688 -31.421875 7.484375 -31.984375 C 8.796875 -32.546875 10.195312 -32.828125 11.6875 -32.828125 Z M 11.6875 -32.828125 "/></g></g></g><g fill="#000000" fill-opacity="1"><g transform="translate(739.838081, 1059.352977)"><g><path d="M 24.703125 -32.328125 C 24.578125 -31.265625 24.488281 -30.226562 24.4375 -29.21875 C 24.394531 -28.21875 24.375 -27.457031 24.375 -26.9375 C 24.375 -26.382812 24.390625 -25.859375 24.421875 -25.359375 C 24.453125 -24.859375 24.484375 -24.441406 24.515625 -24.109375 L 23.46875 -24.109375 C 23.28125 -25.898438 23.019531 -27.320312 22.6875 -28.375 C 22.351562 -29.425781 21.78125 -30.171875 20.96875 -30.609375 C 20.164062 -31.054688 18.957031 -31.28125 17.34375 -31.28125 L 13.5625 -31.28125 C 12.519531 -31.28125 11.734375 -31.191406 11.203125 -31.015625 C 10.671875 -30.847656 10.3125 -30.5 10.125 -29.96875 C 9.945312 -29.4375 9.859375 -28.609375 9.859375 -27.484375 L 9.859375 -4.84375 C 9.859375 -3.75 9.945312 -2.925781 10.125 -2.375 C 10.3125 -1.820312 10.671875 -1.460938 11.203125 -1.296875 C 11.734375 -1.128906 12.519531 -1.046875 13.5625 -1.046875 L 16.890625 -1.046875 C 18.804688 -1.046875 20.257812 -1.304688 21.25 -1.828125 C 22.238281 -2.347656 22.953125 -3.191406 23.390625 -4.359375 C 23.835938 -5.535156 24.164062 -7.125 24.375 -9.125 L 25.4375 -9.125 C 25.34375 -8.3125 25.296875 -7.21875 25.296875 -5.84375 C 25.296875 -5.257812 25.316406 -4.425781 25.359375 -3.34375 C 25.410156 -2.269531 25.492188 -1.15625 25.609375 0 C 24.054688 -0.0625 22.304688 -0.0976562 20.359375 -0.109375 C 18.410156 -0.128906 16.675781 -0.140625 15.15625 -0.140625 C 14.488281 -0.140625 13.628906 -0.140625 12.578125 -0.140625 C 11.523438 -0.140625 10.390625 -0.128906 9.171875 -0.109375 C 7.953125 -0.0976562 6.71875 -0.0820312 5.46875 -0.0625 C 4.226562 -0.0507812 3.046875 -0.03125 1.921875 0 L 1.921875 -0.90625 C 2.953125 -0.96875 3.734375 -1.085938 4.265625 -1.265625 C 4.796875 -1.453125 5.148438 -1.820312 5.328125 -2.375 C 5.515625 -2.925781 5.609375 -3.75 5.609375 -4.84375 L 5.609375 -27.484375 C 5.609375 -28.609375 5.515625 -29.4375 5.328125 -29.96875 C 5.148438 -30.5 4.796875 -30.863281 4.265625 -31.0625 C 3.734375 -31.257812 2.953125 -31.375 1.921875 -31.40625 L 1.921875 -32.328125 C 3.046875 -32.296875 4.226562 -32.269531 5.46875 -32.25 C 6.71875 -32.238281 7.953125 -32.222656 9.171875 -32.203125 C 10.390625 -32.191406 11.523438 -32.1875 12.578125 -32.1875 C 13.628906 -32.1875 14.488281 -32.1875 15.15625 -32.1875 C 16.5625 -32.1875 18.148438 -32.191406 19.921875 -32.203125 C 21.703125 -32.222656 23.296875 -32.265625 24.703125 -32.328125 Z M 16.84375 -16.703125 C 16.84375 -16.703125 16.84375 -16.550781 16.84375 -16.25 C 16.84375 -15.945312 16.84375 -15.796875 16.84375 -15.796875 L 8.484375 -15.796875 C 8.484375 -15.796875 8.484375 -15.945312 8.484375 -16.25 C 8.484375 -16.550781 8.484375 -16.703125 8.484375 -16.703125 Z M 18.171875 -22.734375 C 18.046875 -21.003906 17.988281 -19.679688 18 -18.765625 C 18.019531 -17.847656 18.03125 -17.007812 18.03125 -16.25 C 18.03125 -15.488281 18.046875 -14.648438 18.078125 -13.734375 C 18.109375 -12.828125 18.1875 -11.503906 18.3125 -9.765625 L 17.265625 -9.765625 C 17.140625 -10.742188 16.992188 -11.695312 16.828125 -12.625 C 16.660156 -13.550781 16.296875 -14.3125 15.734375 -14.90625 C 15.171875 -15.5 14.21875 -15.796875 12.875 -15.796875 L 12.875 -16.703125 C 13.875 -16.703125 14.640625 -16.90625 15.171875 -17.3125 C 15.710938 -17.726562 16.101562 -18.253906 16.34375 -18.890625 C 16.582031 -19.535156 16.75 -20.203125 16.84375 -20.890625 C 16.9375 -21.578125 17.03125 -22.191406 17.125 -22.734375 Z M 18.171875 -22.734375 "/></g></g></g><g fill="#000000" fill-opacity="1"><g transform="translate(777.186833, 1059.352977)"><g><path d="M 1.921875 -32.328125 C 2.554688 -32.296875 3.390625 -32.265625 4.421875 -32.234375 C 5.460938 -32.203125 6.484375 -32.1875 7.484375 -32.1875 C 8.921875 -32.1875 10.289062 -32.203125 11.59375 -32.234375 C 12.90625 -32.265625 13.832031 -32.28125 14.375 -32.28125 C 16.84375 -32.28125 18.890625 -31.925781 20.515625 -31.21875 C 22.148438 -30.519531 23.367188 -29.570312 24.171875 -28.375 C 24.984375 -27.175781 25.390625 -25.828125 25.390625 -24.328125 C 25.390625 -23.421875 25.207031 -22.445312 24.84375 -21.40625 C 24.476562 -20.375 23.84375 -19.398438 22.9375 -18.484375 C 22.039062 -17.578125 20.816406 -16.828125 19.265625 -16.234375 C 17.710938 -15.640625 15.75 -15.34375 13.375 -15.34375 L 9 -15.34375 L 9 -16.25 L 12.921875 -16.25 C 15.078125 -16.25 16.726562 -16.59375 17.875 -17.28125 C 19.019531 -17.96875 19.796875 -18.878906 20.203125 -20.015625 C 20.609375 -21.160156 20.8125 -22.429688 20.8125 -23.828125 C 20.8125 -26.234375 20.238281 -28.097656 19.09375 -29.421875 C 17.957031 -30.742188 16.003906 -31.40625 13.234375 -31.40625 C 11.835938 -31.40625 10.925781 -31.144531 10.5 -30.625 C 10.070312 -30.113281 9.859375 -29.066406 9.859375 -27.484375 L 9.859375 -4.84375 C 9.859375 -3.75 9.945312 -2.925781 10.125 -2.375 C 10.3125 -1.820312 10.671875 -1.453125 11.203125 -1.265625 C 11.734375 -1.085938 12.519531 -0.96875 13.5625 -0.90625 L 13.5625 0 C 12.863281 -0.0625 11.988281 -0.0976562 10.9375 -0.109375 C 9.882812 -0.128906 8.828125 -0.140625 7.765625 -0.140625 C 6.578125 -0.140625 5.460938 -0.128906 4.421875 -0.109375 C 3.390625 -0.0976562 2.554688 -0.0625 1.921875 0 L 1.921875 -0.90625 C 2.953125 -0.96875 3.734375 -1.085938 4.265625 -1.265625 C 4.796875 -1.453125 5.148438 -1.820312 5.328125 -2.375 C 5.515625 -2.925781 5.609375 -3.75 5.609375 -4.84375 L 5.609375 -27.484375 C 5.609375 -28.609375 5.515625 -29.4375 5.328125 -29.96875 C 5.148438 -30.5 4.796875 -30.863281 4.265625 -31.0625 C 3.734375 -31.257812 2.953125 -31.375 1.921875 -31.40625 Z M 9.171875 -16.109375 C 10.816406 -16.054688 12.109375 -15.988281 13.046875 -15.90625 C 13.992188 -15.832031 14.765625 -15.765625 15.359375 -15.703125 C 15.953125 -15.640625 16.523438 -15.566406 17.078125 -15.484375 C 19.117188 -15.140625 20.585938 -14.519531 21.484375 -13.625 C 22.378906 -12.726562 23.039062 -11.335938 23.46875 -9.453125 L 24.609375 -4.796875 C 24.910156 -3.453125 25.222656 -2.484375 25.546875 -1.890625 C 25.867188 -1.296875 26.363281 -1.015625 27.03125 -1.046875 C 27.539062 -1.078125 27.972656 -1.242188 28.328125 -1.546875 C 28.679688 -1.859375 29.054688 -2.269531 29.453125 -2.78125 L 30.140625 -2.28125 C 29.492188 -1.34375 28.828125 -0.617188 28.140625 -0.109375 C 27.460938 0.390625 26.5 0.640625 25.25 0.640625 C 24.125 0.640625 23.132812 0.304688 22.28125 -0.359375 C 21.425781 -1.035156 20.785156 -2.347656 20.359375 -4.296875 L 19.359375 -8.859375 C 19.085938 -10.171875 18.773438 -11.304688 18.421875 -12.265625 C 18.066406 -13.222656 17.578125 -13.972656 16.953125 -14.515625 C 16.335938 -15.066406 15.421875 -15.34375 14.203125 -15.34375 L 9.265625 -15.34375 Z M 9.171875 -16.109375 "/></g></g></g><g fill="#000000" fill-opacity="1"><g transform="translate(816.316171, 1059.352977)"><g><path d="M 29.078125 -32.328125 L 29.078125 -31.40625 C 28.503906 -31.289062 27.890625 -30.941406 27.234375 -30.359375 C 26.578125 -29.785156 25.988281 -28.8125 25.46875 -27.4375 L 14.75 0.234375 C 14.6875 0.234375 14.625 0.234375 14.5625 0.234375 C 14.5 0.234375 14.4375 0.234375 14.375 0.234375 C 14.320312 0.234375 14.265625 0.234375 14.203125 0.234375 C 14.140625 0.234375 14.078125 0.234375 14.015625 0.234375 L 2.875 -28.484375 C 2.414062 -29.640625 1.894531 -30.40625 1.3125 -30.78125 C 0.738281 -31.164062 0.207031 -31.375 -0.28125 -31.40625 L -0.28125 -32.328125 C 0.332031 -32.296875 1.085938 -32.265625 1.984375 -32.234375 C 2.878906 -32.203125 3.753906 -32.1875 4.609375 -32.1875 C 5.796875 -32.1875 6.90625 -32.203125 7.9375 -32.234375 C 8.976562 -32.265625 9.816406 -32.296875 10.453125 -32.328125 L 10.453125 -31.40625 C 9.421875 -31.375 8.640625 -31.253906 8.109375 -31.046875 C 7.578125 -30.835938 7.285156 -30.460938 7.234375 -29.921875 C 7.191406 -29.390625 7.367188 -28.609375 7.765625 -27.578125 L 16.25 -5.0625 L 15.515625 -4.296875 L 23.46875 -24.921875 C 24.101562 -26.566406 24.40625 -27.851562 24.375 -28.78125 C 24.34375 -29.707031 23.992188 -30.367188 23.328125 -30.765625 C 22.660156 -31.160156 21.6875 -31.375 20.40625 -31.40625 L 20.40625 -32.328125 C 21.289062 -32.296875 22.1875 -32.265625 23.09375 -32.234375 C 24.007812 -32.203125 24.863281 -32.1875 25.65625 -32.1875 C 26.445312 -32.1875 27.097656 -32.203125 27.609375 -32.234375 C 28.128906 -32.265625 28.617188 -32.296875 29.078125 -32.328125 Z M 29.078125 -32.328125 "/></g></g></g><g fill="#000000" fill-opacity="1"><g transform="translate(854.623685, 1059.352977)"><g><path d="M 13.5625 -32.328125 L 13.5625 -31.40625 C 12.519531 -31.375 11.734375 -31.257812 11.203125 -31.0625 C 10.671875 -30.863281 10.3125 -30.5 10.125 -29.96875 C 9.945312 -29.4375 9.859375 -28.609375 9.859375 -27.484375 L 9.859375 -4.84375 C 9.859375 -3.75 9.945312 -2.925781 10.125 -2.375 C 10.3125 -1.820312 10.671875 -1.453125 11.203125 -1.265625 C 11.734375 -1.085938 12.519531 -0.96875 13.5625 -0.90625 L 13.5625 0 C 12.863281 -0.0625 11.988281 -0.0976562 10.9375 -0.109375 C 9.882812 -0.128906 8.828125 -0.140625 7.765625 -0.140625 C 6.578125 -0.140625 5.460938 -0.128906 4.421875 -0.109375 C 3.390625 -0.0976562 2.554688 -0.0625 1.921875 0 L 1.921875 -0.90625 C 2.953125 -0.96875 3.734375 -1.085938 4.265625 -1.265625 C 4.796875 -1.453125 5.148438 -1.820312 5.328125 -2.375 C 5.515625 -2.925781 5.609375 -3.75 5.609375 -4.84375 L 5.609375 -27.484375 C 5.609375 -28.609375 5.515625 -29.4375 5.328125 -29.96875 C 5.148438 -30.5 4.796875 -30.863281 4.265625 -31.0625 C 3.734375 -31.257812 2.953125 -31.375 1.921875 -31.40625 L 1.921875 -32.328125 C 2.554688 -32.296875 3.390625 -32.265625 4.421875 -32.234375 C 5.460938 -32.203125 6.578125 -32.1875 7.765625 -32.1875 C 8.828125 -32.1875 9.882812 -32.203125 10.9375 -32.234375 C 11.988281 -32.265625 12.863281 -32.296875 13.5625 -32.328125 Z M 13.5625 -32.328125 "/></g></g></g><g fill="#000000" fill-opacity="1"><g transform="translate(879.645275, 1059.352977)"><g><path d="M 16.9375 -32.96875 C 18.945312 -32.96875 20.597656 -32.671875 21.890625 -32.078125 C 23.179688 -31.484375 24.332031 -30.789062 25.34375 -30 C 25.945312 -29.539062 26.410156 -29.484375 26.734375 -29.828125 C 27.054688 -30.179688 27.273438 -31.015625 27.390625 -32.328125 L 28.4375 -32.328125 C 28.382812 -31.203125 28.34375 -29.832031 28.3125 -28.21875 C 28.28125 -26.601562 28.265625 -24.472656 28.265625 -21.828125 L 27.21875 -21.828125 C 27 -23.128906 26.796875 -24.164062 26.609375 -24.9375 C 26.429688 -25.71875 26.210938 -26.382812 25.953125 -26.9375 C 25.691406 -27.488281 25.347656 -28.035156 24.921875 -28.578125 C 23.984375 -29.828125 22.796875 -30.734375 21.359375 -31.296875 C 19.929688 -31.859375 18.425781 -32.140625 16.84375 -32.140625 C 15.351562 -32.140625 14.003906 -31.765625 12.796875 -31.015625 C 11.597656 -30.273438 10.566406 -29.203125 9.703125 -27.796875 C 8.835938 -26.398438 8.164062 -24.710938 7.6875 -22.734375 C 7.21875 -20.753906 6.984375 -18.535156 6.984375 -16.078125 C 6.984375 -13.515625 7.238281 -11.25 7.75 -9.28125 C 8.269531 -7.320312 8.992188 -5.671875 9.921875 -4.328125 C 10.859375 -2.992188 11.957031 -1.984375 13.21875 -1.296875 C 14.476562 -0.617188 15.835938 -0.28125 17.296875 -0.28125 C 18.671875 -0.28125 20.101562 -0.550781 21.59375 -1.09375 C 23.082031 -1.644531 24.253906 -2.53125 25.109375 -3.75 C 25.773438 -4.625 26.238281 -5.578125 26.5 -6.609375 C 26.757812 -7.648438 27 -9.097656 27.21875 -10.953125 L 28.265625 -10.953125 C 28.265625 -8.179688 28.28125 -5.953125 28.3125 -4.265625 C 28.34375 -2.578125 28.382812 -1.15625 28.4375 0 L 27.390625 0 C 27.273438 -1.3125 27.070312 -2.132812 26.78125 -2.46875 C 26.488281 -2.800781 26.007812 -2.753906 25.34375 -2.328125 C 24.21875 -1.535156 23.019531 -0.84375 21.75 -0.25 C 20.488281 0.34375 18.867188 0.640625 16.890625 0.640625 C 14.003906 0.640625 11.472656 -0.0078125 9.296875 -1.3125 C 7.117188 -2.625 5.425781 -4.515625 4.21875 -6.984375 C 3.019531 -9.453125 2.421875 -12.421875 2.421875 -15.890625 C 2.421875 -19.296875 3.039062 -22.273438 4.28125 -24.828125 C 5.53125 -27.390625 7.242188 -29.382812 9.421875 -30.8125 C 11.597656 -32.25 14.101562 -32.96875 16.9375 -32.96875 Z M 16.9375 -32.96875 "/></g></g></g><g fill="#000000" fill-opacity="1"><g transform="translate(920.600884, 1059.352977)"><g><path d="M 24.703125 -32.328125 C 24.578125 -31.265625 24.488281 -30.226562 24.4375 -29.21875 C 24.394531 -28.21875 24.375 -27.457031 24.375 -26.9375 C 24.375 -26.382812 24.390625 -25.859375 24.421875 -25.359375 C 24.453125 -24.859375 24.484375 -24.441406 24.515625 -24.109375 L 23.46875 -24.109375 C 23.28125 -25.898438 23.019531 -27.320312 22.6875 -28.375 C 22.351562 -29.425781 21.78125 -30.171875 20.96875 -30.609375 C 20.164062 -31.054688 18.957031 -31.28125 17.34375 -31.28125 L 13.5625 -31.28125 C 12.519531 -31.28125 11.734375 -31.191406 11.203125 -31.015625 C 10.671875 -30.847656 10.3125 -30.5 10.125 -29.96875 C 9.945312 -29.4375 9.859375 -28.609375 9.859375 -27.484375 L 9.859375 -4.84375 C 9.859375 -3.75 9.945312 -2.925781 10.125 -2.375 C 10.3125 -1.820312 10.671875 -1.460938 11.203125 -1.296875 C 11.734375 -1.128906 12.519531 -1.046875 13.5625 -1.046875 L 16.890625 -1.046875 C 18.804688 -1.046875 20.257812 -1.304688 21.25 -1.828125 C 22.238281 -2.347656 22.953125 -3.191406 23.390625 -4.359375 C 23.835938 -5.535156 24.164062 -7.125 24.375 -9.125 L 25.4375 -9.125 C 25.34375 -8.3125 25.296875 -7.21875 25.296875 -5.84375 C 25.296875 -5.257812 25.316406 -4.425781 25.359375 -3.34375 C 25.410156 -2.269531 25.492188 -1.15625 25.609375 0 C 24.054688 -0.0625 22.304688 -0.0976562 20.359375 -0.109375 C 18.410156 -0.128906 16.675781 -0.140625 15.15625 -0.140625 C 14.488281 -0.140625 13.628906 -0.140625 12.578125 -0.140625 C 11.523438 -0.140625 10.390625 -0.128906 9.171875 -0.109375 C 7.953125 -0.0976562 6.71875 -0.0820312 5.46875 -0.0625 C 4.226562 -0.0507812 3.046875 -0.03125 1.921875 0 L 1.921875 -0.90625 C 2.953125 -0.96875 3.734375 -1.085938 4.265625 -1.265625 C 4.796875 -1.453125 5.148438 -1.820312 5.328125 -2.375 C 5.515625 -2.925781 5.609375 -3.75 5.609375 -4.84375 L 5.609375 -27.484375 C 5.609375 -28.609375 5.515625 -29.4375 5.328125 -29.96875 C 5.148438 -30.5 4.796875 -30.863281 4.265625 -31.0625 C 3.734375 -31.257812 2.953125 -31.375 1.921875 -31.40625 L 1.921875 -32.328125 C 3.046875 -32.296875 4.226562 -32.269531 5.46875 -32.25 C 6.71875 -32.238281 7.953125 -32.222656 9.171875 -32.203125 C 10.390625 -32.191406 11.523438 -32.1875 12.578125 -32.1875 C 13.628906 -32.1875 14.488281 -32.1875 15.15625 -32.1875 C 16.5625 -32.1875 18.148438 -32.191406 19.921875 -32.203125 C 21.703125 -32.222656 23.296875 -32.265625 24.703125 -32.328125 Z M 16.84375 -16.703125 C 16.84375 -16.703125 16.84375 -16.550781 16.84375 -16.25 C 16.84375 -15.945312 16.84375 -15.796875 16.84375 -15.796875 L 8.484375 -15.796875 C 8.484375 -15.796875 8.484375 -15.945312 8.484375 -16.25 C 8.484375 -16.550781 8.484375 -16.703125 8.484375 -16.703125 Z M 18.171875 -22.734375 C 18.046875 -21.003906 17.988281 -19.679688 18 -18.765625 C 18.019531 -17.847656 18.03125 -17.007812 18.03125 -16.25 C 18.03125 -15.488281 18.046875 -14.648438 18.078125 -13.734375 C 18.109375 -12.828125 18.1875 -11.503906 18.3125 -9.765625 L 17.265625 -9.765625 C 17.140625 -10.742188 16.992188 -11.695312 16.828125 -12.625 C 16.660156 -13.550781 16.296875 -14.3125 15.734375 -14.90625 C 15.171875 -15.5 14.21875 -15.796875 12.875 -15.796875 L 12.875 -16.703125 C 13.875 -16.703125 14.640625 -16.90625 15.171875 -17.3125 C 15.710938 -17.726562 16.101562 -18.253906 16.34375 -18.890625 C 16.582031 -19.535156 16.75 -20.203125 16.84375 -20.890625 C 16.9375 -21.578125 17.03125 -22.191406 17.125 -22.734375 Z M 18.171875 -22.734375 "/></g></g></g><g fill="#000000" fill-opacity="1"><g transform="translate(957.949635, 1059.352977)"><g><path d="M 11.6875 -32.828125 C 13.207031 -32.828125 14.363281 -32.648438 15.15625 -32.296875 C 15.945312 -31.953125 16.648438 -31.566406 17.265625 -31.140625 C 17.628906 -30.921875 17.921875 -30.757812 18.140625 -30.65625 C 18.367188 -30.550781 18.59375 -30.5 18.8125 -30.5 C 19.113281 -30.5 19.332031 -30.664062 19.46875 -31 C 19.601562 -31.332031 19.71875 -31.832031 19.8125 -32.5 L 20.859375 -32.5 C 20.828125 -31.988281 20.789062 -31.375 20.75 -30.65625 C 20.707031 -29.9375 20.675781 -28.988281 20.65625 -27.8125 C 20.644531 -26.644531 20.640625 -25.101562 20.640625 -23.1875 L 19.59375 -23.1875 C 19.5 -24.65625 19.175781 -26.054688 18.625 -27.390625 C 18.082031 -28.734375 17.285156 -29.828125 16.234375 -30.671875 C 15.179688 -31.523438 13.800781 -31.953125 12.09375 -31.953125 C 10.476562 -31.953125 9.144531 -31.460938 8.09375 -30.484375 C 7.050781 -29.515625 6.53125 -28.238281 6.53125 -26.65625 C 6.53125 -25.289062 6.878906 -24.144531 7.578125 -23.21875 C 8.273438 -22.289062 9.207031 -21.453125 10.375 -20.703125 C 11.550781 -19.960938 12.828125 -19.164062 14.203125 -18.3125 C 15.785156 -17.332031 17.191406 -16.363281 18.421875 -15.40625 C 19.648438 -14.445312 20.625 -13.390625 21.34375 -12.234375 C 22.0625 -11.078125 22.421875 -9.675781 22.421875 -8.03125 C 22.421875 -6.082031 21.976562 -4.46875 21.09375 -3.1875 C 20.207031 -1.914062 19.035156 -0.957031 17.578125 -0.3125 C 16.117188 0.320312 14.503906 0.640625 12.734375 0.640625 C 11.117188 0.640625 9.835938 0.457031 8.890625 0.09375 C 7.953125 -0.269531 7.148438 -0.648438 6.484375 -1.046875 C 5.816406 -1.472656 5.300781 -1.6875 4.9375 -1.6875 C 4.625 -1.6875 4.398438 -1.519531 4.265625 -1.1875 C 4.128906 -0.851562 4.015625 -0.351562 3.921875 0.3125 L 2.875 0.3125 C 2.9375 -0.320312 2.972656 -1.070312 2.984375 -1.9375 C 3.003906 -2.800781 3.019531 -3.929688 3.03125 -5.328125 C 3.050781 -6.734375 3.0625 -8.503906 3.0625 -10.640625 L 4.109375 -10.640625 C 4.234375 -8.816406 4.578125 -7.113281 5.140625 -5.53125 C 5.703125 -3.945312 6.566406 -2.675781 7.734375 -1.71875 C 8.910156 -0.757812 10.472656 -0.28125 12.421875 -0.28125 C 13.421875 -0.28125 14.367188 -0.484375 15.265625 -0.890625 C 16.171875 -1.296875 16.910156 -1.945312 17.484375 -2.84375 C 18.066406 -3.75 18.359375 -4.914062 18.359375 -6.34375 C 18.359375 -7.59375 18.0625 -8.679688 17.46875 -9.609375 C 16.875 -10.535156 16.039062 -11.398438 14.96875 -12.203125 C 13.90625 -13.015625 12.660156 -13.847656 11.234375 -14.703125 C 9.796875 -15.585938 8.453125 -16.484375 7.203125 -17.390625 C 5.960938 -18.304688 4.96875 -19.363281 4.21875 -20.5625 C 3.476562 -21.769531 3.109375 -23.222656 3.109375 -24.921875 C 3.109375 -26.722656 3.507812 -28.207031 4.3125 -29.375 C 5.125 -30.550781 6.179688 -31.421875 7.484375 -31.984375 C 8.796875 -32.546875 10.195312 -32.828125 11.6875 -32.828125 Z M 11.6875 -32.828125 "/></g></g></g><path stroke-linecap="butt" transform="matrix(0.75, 0, 0, 0.75, 310.394685, 783.689504)" fill="none" stroke-linejoin="miter" d="M -0.00020502 8.002536 L 1172.281146 8.002536 " stroke="#29853a" stroke-width="16" stroke-opacity="1" stroke-miterlimit="4"/></svg>