<svg xmlns="http://www.w3.org/2000/svg" xmlns:xlink="http://www.w3.org/1999/xlink" width="2000" zoomAndPan="magnify" viewBox="0 0 1500 1499.999933" height="2000" preserveAspectRatio="xMidYMid meet" version="1.0"><defs><g/><clipPath id="7688d7fcb0"><path d="M 898.445312 681.351562 L 992.335938 681.351562 L 992.335938 774.953125 L 898.445312 774.953125 Z M 898.445312 681.351562 " clip-rule="nonzero"/></clipPath><clipPath id="a9381b127c"><path d="M 548.726562 681.351562 L 642.617188 681.351562 L 642.617188 774.953125 L 548.726562 774.953125 Z M 548.726562 681.351562 " clip-rule="nonzero"/></clipPath><clipPath id="2e9d78d2c2"><path d="M 405.023438 443.722656 L 934 443.722656 L 934 722 L 405.023438 722 Z M 405.023438 443.722656 " clip-rule="nonzero"/></clipPath></defs><g clip-path="url(#7688d7fcb0)"><path fill="#29853a" d="M 992.175781 728.210938 C 992.175781 753.976562 971.289062 774.867188 945.519531 774.867188 C 919.753906 774.867188 898.867188 753.976562 898.867188 728.210938 C 898.867188 702.445312 919.753906 681.558594 945.519531 681.558594 C 971.289062 681.558594 992.175781 702.445312 992.175781 728.210938 " fill-opacity="1" fill-rule="nonzero"/></g><g clip-path="url(#a9381b127c)"><path fill="#29853a" d="M 642.273438 728.210938 C 642.273438 753.976562 621.382812 774.867188 595.617188 774.867188 C 569.851562 774.867188 548.964844 753.976562 548.964844 728.210938 C 548.964844 702.445312 569.851562 681.558594 595.617188 681.558594 C 621.382812 681.558594 642.273438 702.445312 642.273438 728.210938 " fill-opacity="1" fill-rule="nonzero"/></g><path fill="#ffffff" d="M 609.75 728.210938 C 609.75 736.015625 603.421875 742.34375 595.617188 742.34375 C 587.8125 742.34375 581.484375 736.015625 581.484375 728.210938 C 581.484375 720.40625 587.8125 714.078125 595.617188 714.078125 C 603.421875 714.078125 609.75 720.40625 609.75 728.210938 " fill-opacity="1" fill-rule="nonzero"/><path fill="#ffffff" d="M 959.652344 728.210938 C 959.652344 736.015625 953.328125 742.34375 945.519531 742.34375 C 937.714844 742.34375 931.386719 736.015625 931.386719 728.210938 C 931.386719 720.40625 937.714844 714.078125 945.519531 714.078125 C 953.328125 714.078125 959.652344 720.40625 959.652344 728.210938 " fill-opacity="1" fill-rule="nonzero"/><path fill="#29853a" d="M 884.289062 754.453125 L 652.476562 754.453125 L 652.476562 736.957031 L 884.289062 736.957031 L 884.289062 754.453125 " fill-opacity="1" fill-rule="nonzero"/><path fill="#29853a" d="M 745.960938 587.167969 C 742.933594 608.652344 822.609375 602.414062 834.792969 600.992188 C 838.847656 600.519531 842.976562 599.867188 846.570312 597.929688 C 850.164062 595.992188 853.179688 592.539062 853.5625 588.476562 C 859.597656 589.835938 868.160156 594.769531 869.65625 601.410156 C 874.917969 624.777344 818.425781 623.101562 806.21875 623.195312 C 787.527344 623.34375 768.585938 623.464844 750.464844 618.867188 C 745.628906 617.640625 740.683594 615.96875 737.148438 612.445312 C 727.539062 602.871094 737.78125 592.671875 745.960938 587.167969 " fill-opacity="1" fill-rule="nonzero"/><g clip-path="url(#2e9d78d2c2)"><path fill="#29853a" d="M 434.78125 463.148438 L 466.492188 456.585938 L 583.285156 581.558594 C 582.820312 590.195312 582.316406 599.511719 581.832031 608.546875 Z M 922.292969 656.429688 C 917.578125 651.21875 913.054688 646.113281 907.503906 641.734375 C 896.152344 632.78125 881.535156 625.621094 866.707031 627.398438 C 853.792969 628.945312 841.824219 634.644531 828.679688 636.160156 C 815.304688 637.703125 801.792969 637.921875 788.355469 637.160156 C 770.992188 636.175781 740.722656 635.835938 726.015625 625.539062 C 721.859375 622.628906 718.363281 618.871094 714.382812 615.71875 C 705.5 608.6875 696.039062 606.734375 685.199219 605.054688 C 681.066406 604.417969 678.609375 603.941406 676.847656 603.152344 C 672.777344 601.332031 670.609375 596.191406 668.148438 592.777344 C 664.726562 588.03125 660.855469 583.597656 656.648438 579.527344 C 647.445312 570.621094 636.570312 563.449219 624.746094 558.53125 C 621.265625 557.085938 585.253906 545.085938 585.273438 544.730469 C 585.269531 544.757812 584.855469 552.449219 584.246094 563.777344 L 474.148438 443.464844 L 405.253906 450.023438 L 581.113281 621.898438 C 580.078125 641.066406 579.257812 656.257812 579.257812 656.257812 C 612.9375 661.789062 646.535156 667.632812 680.308594 672.230469 C 691.382812 673.738281 702.847656 676.980469 710.609375 685.015625 C 719.53125 694.257812 721.332031 707.871094 718.066406 719.898438 C 745.132812 719.230469 772.433594 719.828125 799.558594 719.828125 C 805.148438 719.828125 877.578125 722.777344 878.316406 719.765625 C 889.820312 672.808594 933.515625 668.917969 933.515625 668.917969 C 932.148438 669.039062 923.460938 657.71875 922.292969 656.429688 " fill-opacity="1" fill-rule="nonzero"/></g><g fill="#000000" fill-opacity="1"><g transform="translate(340.794379, 1004.02127)"><g><path d="M 175.84375 -139.25 L 175.84375 -135.328125 C 171.644531 -135.191406 168.492188 -134.695312 166.390625 -133.84375 C 164.296875 -132.988281 162.890625 -131.414062 162.171875 -129.125 C 161.453125 -126.832031 161.09375 -123.257812 161.09375 -118.40625 L 161.09375 -20.84375 C 161.09375 -16.125 161.453125 -12.582031 162.171875 -10.21875 C 162.890625 -7.863281 164.296875 -6.289062 166.390625 -5.5 C 168.492188 -4.71875 171.644531 -4.195312 175.84375 -3.9375 L 175.84375 0 C 172.164062 -0.257812 167.539062 -0.421875 161.96875 -0.484375 C 156.394531 -0.554688 150.722656 -0.59375 144.953125 -0.59375 C 138.660156 -0.59375 132.757812 -0.554688 127.25 -0.484375 C 121.75 -0.421875 117.289062 -0.257812 113.875 0 L 113.875 -3.9375 C 118.332031 -4.195312 121.707031 -4.71875 124 -5.5 C 126.300781 -6.289062 127.84375 -7.863281 128.625 -10.21875 C 129.414062 -12.582031 129.8125 -16.125 129.8125 -20.84375 L 129.8125 -127.25 L 131.1875 -127.25 L 82.40625 0.203125 L 79.265625 0.203125 L 26.15625 -126.46875 L 26.15625 -32.25 C 26.15625 -25.039062 26.546875 -19.5 27.328125 -15.625 C 28.117188 -11.757812 29.859375 -9.007812 32.546875 -7.375 C 35.234375 -5.738281 39.460938 -4.59375 45.234375 -3.9375 L 45.234375 0 C 42.742188 -0.257812 39.46875 -0.421875 35.40625 -0.484375 C 31.34375 -0.554688 27.539062 -0.59375 24 -0.59375 C 20.976562 -0.59375 17.894531 -0.554688 14.75 -0.484375 C 11.601562 -0.421875 8.984375 -0.257812 6.890625 0 L 6.890625 -3.9375 C 11.078125 -4.59375 14.21875 -5.707031 16.3125 -7.28125 C 18.414062 -8.851562 19.828125 -11.441406 20.546875 -15.046875 C 21.273438 -18.648438 21.640625 -23.597656 21.640625 -29.890625 L 21.640625 -118.40625 C 21.640625 -123.257812 21.273438 -126.832031 20.546875 -129.125 C 19.828125 -131.414062 18.382812 -132.988281 16.21875 -133.84375 C 14.0625 -134.695312 10.953125 -135.191406 6.890625 -135.328125 L 6.890625 -139.25 C 8.984375 -139.125 11.601562 -138.992188 14.75 -138.859375 C 17.894531 -138.734375 20.976562 -138.671875 24 -138.671875 C 29.632812 -138.671875 35.171875 -138.734375 40.609375 -138.859375 C 46.054688 -138.992188 50.878906 -139.125 55.078125 -139.25 L 96.375 -39.53125 L 91.453125 -35.015625 L 131 -138.671875 C 133.226562 -138.671875 135.519531 -138.671875 137.875 -138.671875 C 140.238281 -138.671875 142.597656 -138.671875 144.953125 -138.671875 C 150.722656 -138.671875 156.394531 -138.734375 161.96875 -138.859375 C 167.539062 -138.992188 172.164062 -139.125 175.84375 -139.25 Z M 175.84375 -139.25 "/></g></g></g><g fill="#000000" fill-opacity="1"><g transform="translate(508.365237, 1004.02127)"><g><path d="M 78.078125 -142.015625 C 91.984375 -142.015625 104.144531 -139.191406 114.5625 -133.546875 C 124.988281 -127.910156 133.085938 -119.8125 138.859375 -109.25 C 144.628906 -98.695312 147.515625 -85.882812 147.515625 -70.8125 C 147.515625 -56.125 144.5625 -43.269531 138.65625 -32.25 C 132.757812 -21.238281 124.53125 -12.648438 113.96875 -6.484375 C 103.414062 -0.328125 91.390625 2.75 77.890625 2.75 C 63.992188 2.75 51.832031 -0.0664062 41.40625 -5.703125 C 30.976562 -11.335938 22.878906 -19.46875 17.109375 -30.09375 C 11.335938 -40.71875 8.453125 -53.503906 8.453125 -68.453125 C 8.453125 -83.128906 11.4375 -95.972656 17.40625 -106.984375 C 23.375 -118.003906 31.566406 -126.597656 41.984375 -132.765625 C 52.410156 -138.929688 64.441406 -142.015625 78.078125 -142.015625 Z M 77.296875 -138.46875 C 69.953125 -138.46875 63.554688 -135.515625 58.109375 -129.609375 C 52.671875 -123.710938 48.476562 -115.582031 45.53125 -105.21875 C 42.582031 -94.863281 41.109375 -82.867188 41.109375 -69.234375 C 41.109375 -55.335938 42.78125 -43.238281 46.125 -32.9375 C 49.46875 -22.644531 53.988281 -14.710938 59.6875 -9.140625 C 65.394531 -3.566406 71.722656 -0.78125 78.671875 -0.78125 C 86.015625 -0.78125 92.40625 -3.726562 97.84375 -9.625 C 103.289062 -15.53125 107.488281 -23.695312 110.4375 -34.125 C 113.382812 -44.550781 114.859375 -56.515625 114.859375 -70.015625 C 114.859375 -84.046875 113.1875 -96.175781 109.84375 -106.40625 C 106.5 -116.632812 101.972656 -124.535156 96.265625 -130.109375 C 90.566406 -135.679688 84.242188 -138.46875 77.296875 -138.46875 Z M 77.296875 -138.46875 "/></g></g></g><g fill="#000000" fill-opacity="1"><g transform="translate(649.581015, 1004.02127)"><g><path d="M 6.6875 -139.25 C 9.96875 -139.125 14.394531 -138.992188 19.96875 -138.859375 C 25.539062 -138.734375 31.078125 -138.671875 36.578125 -138.671875 C 42.878906 -138.671875 48.976562 -138.734375 54.875 -138.859375 C 60.78125 -138.992188 64.976562 -139.0625 67.46875 -139.0625 C 79.65625 -139.0625 89.78125 -137.71875 97.84375 -135.03125 C 105.914062 -132.34375 111.953125 -128.441406 115.953125 -123.328125 C 119.953125 -118.210938 121.953125 -112.046875 121.953125 -104.828125 C 121.953125 -100.367188 121.03125 -95.878906 119.1875 -91.359375 C 117.351562 -86.835938 114.238281 -82.640625 109.84375 -78.765625 C 105.457031 -74.898438 99.457031 -71.820312 91.84375 -69.53125 C 84.238281 -67.238281 74.671875 -66.09375 63.140625 -66.09375 L 44.25 -66.09375 L 44.25 -70.015625 L 61.171875 -70.015625 C 68.910156 -70.015625 74.773438 -71.488281 78.765625 -74.4375 C 82.765625 -77.394531 85.519531 -81.332031 87.03125 -86.25 C 88.539062 -91.164062 89.296875 -96.640625 89.296875 -102.671875 C 89.296875 -113.023438 87.457031 -121.054688 83.78125 -126.765625 C 80.113281 -132.472656 73.820312 -135.328125 64.90625 -135.328125 C 59.789062 -135.328125 56.476562 -134.210938 54.96875 -131.984375 C 53.46875 -129.753906 52.71875 -125.226562 52.71875 -118.40625 L 52.71875 -20.84375 C 52.71875 -16.125 53.078125 -12.582031 53.796875 -10.21875 C 54.515625 -7.863281 55.921875 -6.289062 58.015625 -5.5 C 60.117188 -4.71875 63.269531 -4.195312 67.46875 -3.9375 L 67.46875 0 C 63.925781 -0.257812 59.46875 -0.421875 54.09375 -0.484375 C 48.71875 -0.554688 43.273438 -0.59375 37.765625 -0.59375 C 31.472656 -0.59375 25.539062 -0.554688 19.96875 -0.484375 C 14.394531 -0.421875 9.96875 -0.257812 6.6875 0 L 6.6875 -3.9375 C 10.882812 -4.195312 14.03125 -4.71875 16.125 -5.5 C 18.226562 -6.289062 19.640625 -7.863281 20.359375 -10.21875 C 21.078125 -12.582031 21.4375 -16.125 21.4375 -20.84375 L 21.4375 -118.40625 C 21.4375 -123.257812 21.078125 -126.832031 20.359375 -129.125 C 19.640625 -131.414062 18.195312 -132.988281 16.03125 -133.84375 C 13.863281 -134.695312 10.75 -135.191406 6.6875 -135.328125 Z M 43.859375 -69.4375 C 49.492188 -69.300781 54.375 -69.035156 58.5 -68.640625 C 62.632812 -68.242188 66.273438 -67.882812 69.421875 -67.5625 C 72.578125 -67.238281 75.398438 -67.007812 77.890625 -66.875 C 89.816406 -65.820312 98.632812 -63.265625 104.34375 -59.203125 C 110.050781 -55.140625 113.753906 -49.039062 115.453125 -40.90625 L 119.984375 -20.65625 C 121.160156 -15.40625 122.40625 -11.726562 123.71875 -9.625 C 125.03125 -7.53125 126.929688 -6.484375 129.421875 -6.484375 C 131.128906 -6.617188 132.539062 -7.046875 133.65625 -7.765625 C 134.769531 -8.484375 135.976562 -9.566406 137.28125 -11.015625 L 140.046875 -8.65625 C 136.503906 -4.59375 132.695312 -1.675781 128.625 0.09375 C 124.5625 1.863281 119.644531 2.75 113.875 2.75 C 106.800781 2.75 100.96875 1.242188 96.375 -1.765625 C 91.789062 -4.785156 88.773438 -10.359375 87.328125 -18.484375 L 83.78125 -38.15625 C 82.863281 -43.664062 81.75 -48.484375 80.4375 -52.609375 C 79.132812 -56.742188 77.332031 -60.023438 75.03125 -62.453125 C 72.738281 -64.878906 69.5625 -66.09375 65.5 -66.09375 L 44.25 -66.09375 Z M 43.859375 -69.4375 "/></g></g></g><g fill="#000000" fill-opacity="1"><g transform="translate(770.932162, 1004.02127)"><g><path d="M 79.65625 -142.015625 C 88.570312 -142.015625 95.847656 -140.765625 101.484375 -138.265625 C 107.128906 -135.773438 112.179688 -132.757812 116.640625 -129.21875 C 118.210938 -128.039062 119.519531 -127.453125 120.5625 -127.453125 C 123.0625 -127.453125 124.703125 -131.382812 125.484375 -139.25 L 130.015625 -139.25 C 129.742188 -134.132812 129.539062 -127.9375 129.40625 -120.65625 C 129.28125 -113.382812 129.21875 -103.71875 129.21875 -91.65625 L 124.703125 -91.65625 C 123.785156 -99.519531 122.375 -106.367188 120.46875 -112.203125 C 118.570312 -118.046875 115.066406 -123.0625 109.953125 -127.25 C 106.804688 -130.269531 102.90625 -132.628906 98.25 -134.328125 C 93.59375 -136.035156 88.90625 -136.890625 84.1875 -136.890625 C 76.96875 -136.890625 70.800781 -135.019531 65.6875 -131.28125 C 60.570312 -127.550781 56.375 -122.472656 53.09375 -116.046875 C 49.820312 -109.617188 47.398438 -102.375 45.828125 -94.3125 C 44.253906 -86.25 43.46875 -77.890625 43.46875 -69.234375 C 43.46875 -45.628906 46.710938 -28.382812 53.203125 -17.5 C 59.691406 -6.625 69.035156 -1.1875 81.234375 -1.1875 C 84.378906 -1.1875 87.128906 -1.578125 89.484375 -2.359375 C 91.847656 -3.148438 93.753906 -4.066406 95.203125 -5.109375 C 97.035156 -6.421875 98.28125 -7.832031 98.9375 -9.34375 C 99.59375 -10.851562 99.921875 -12.851562 99.921875 -15.34375 L 99.921875 -34.609375 C 99.921875 -40.648438 99.425781 -45.144531 98.4375 -48.09375 C 97.457031 -51.039062 95.523438 -53.035156 92.640625 -54.078125 C 89.753906 -55.128906 85.554688 -55.722656 80.046875 -55.859375 L 80.046875 -59.796875 C 82.804688 -59.660156 86.117188 -59.5625 89.984375 -59.5 C 93.847656 -59.4375 97.878906 -59.367188 102.078125 -59.296875 C 106.273438 -59.234375 110.144531 -59.203125 113.6875 -59.203125 C 119.195312 -59.203125 124.242188 -59.265625 128.828125 -59.390625 C 133.421875 -59.523438 137.160156 -59.660156 140.046875 -59.796875 L 140.046875 -55.859375 C 137.546875 -55.722656 135.671875 -55.257812 134.421875 -54.46875 C 133.179688 -53.6875 132.332031 -52.113281 131.875 -49.75 C 131.414062 -47.394531 131.1875 -43.789062 131.1875 -38.9375 L 131.1875 0 L 127.25 0 C 127.125 -2.226562 126.632812 -4.65625 125.78125 -7.28125 C 124.925781 -9.90625 123.515625 -11.21875 121.546875 -11.21875 C 120.628906 -11.21875 119.414062 -10.984375 117.90625 -10.515625 C 116.40625 -10.054688 114.082031 -8.910156 110.9375 -7.078125 C 106.082031 -4.328125 100.96875 -2 95.59375 -0.09375 C 90.21875 1.800781 84.578125 2.75 78.671875 2.75 C 63.460938 2.75 50.613281 -0.0664062 40.125 -5.703125 C 29.632812 -11.335938 21.734375 -19.429688 16.421875 -29.984375 C 11.109375 -40.546875 8.453125 -53.234375 8.453125 -68.046875 C 8.453125 -82.992188 11.5 -95.972656 17.59375 -106.984375 C 23.695312 -118.003906 32.09375 -126.597656 42.78125 -132.765625 C 53.46875 -138.929688 65.757812 -142.015625 79.65625 -142.015625 Z M 79.65625 -142.015625 "/></g></g></g><g fill="#000000" fill-opacity="1"><g transform="translate(900.740516, 1004.02127)"><g><path d="M 72.375 -139.640625 L 120.171875 -16.515625 C 122.003906 -11.796875 124.066406 -8.550781 126.359375 -6.78125 C 128.660156 -5.007812 130.726562 -4.0625 132.5625 -3.9375 L 132.5625 0 C 128.632812 -0.257812 124.015625 -0.421875 118.703125 -0.484375 C 113.390625 -0.554688 108.046875 -0.59375 102.671875 -0.59375 C 96.640625 -0.59375 90.9375 -0.554688 85.5625 -0.484375 C 80.1875 -0.421875 75.925781 -0.257812 72.78125 0 L 72.78125 -3.9375 C 79.46875 -4.195312 83.691406 -5.34375 85.453125 -7.375 C 87.222656 -9.40625 86.800781 -13.765625 84.1875 -20.453125 L 50.75 -111.921875 L 54.28125 -117.03125 L 24.390625 -39.140625 C 21.503906 -31.929688 19.765625 -26.03125 19.171875 -21.4375 C 18.585938 -16.851562 18.914062 -13.3125 20.15625 -10.8125 C 21.40625 -8.320312 23.4375 -6.582031 26.25 -5.59375 C 29.070312 -4.613281 32.453125 -4.0625 36.390625 -3.9375 L 36.390625 0 C 32.054688 -0.257812 27.921875 -0.421875 23.984375 -0.484375 C 20.054688 -0.554688 16.0625 -0.59375 12 -0.59375 C 9.113281 -0.59375 6.390625 -0.554688 3.828125 -0.484375 C 1.273438 -0.421875 -0.984375 -0.257812 -2.953125 0 L -2.953125 -3.9375 C -0.191406 -4.457031 2.625 -6.222656 5.5 -9.234375 C 8.382812 -12.253906 11.207031 -17.367188 13.96875 -24.578125 L 58.8125 -139.640625 C 60.90625 -139.515625 63.164062 -139.453125 65.59375 -139.453125 C 68.019531 -139.453125 70.28125 -139.515625 72.375 -139.640625 Z M 86.15625 -56.640625 L 86.15625 -52.71875 L 27.53125 -52.71875 L 29.5 -56.640625 Z M 86.15625 -56.640625 "/></g></g></g><g fill="#000000" fill-opacity="1"><g transform="translate(1017.174664, 1004.02127)"><g><path d="M 136.296875 -139.25 L 136.296875 -135.328125 C 132.109375 -134.796875 128.960938 -133.707031 126.859375 -132.0625 C 124.765625 -130.425781 123.351562 -127.835938 122.625 -124.296875 C 121.90625 -120.765625 121.546875 -115.785156 121.546875 -109.359375 L 121.546875 0.390625 C 119.972656 0.265625 118.367188 0.203125 116.734375 0.203125 C 115.097656 0.203125 113.359375 0.265625 111.515625 0.390625 L 26.15625 -107.78125 L 26.15625 -32.25 C 26.15625 -25.039062 26.546875 -19.5 27.328125 -15.625 C 28.117188 -11.757812 29.859375 -9.007812 32.546875 -7.375 C 35.234375 -5.738281 39.460938 -4.59375 45.234375 -3.9375 L 45.234375 0 C 42.742188 -0.257812 39.46875 -0.421875 35.40625 -0.484375 C 31.34375 -0.554688 27.539062 -0.59375 24 -0.59375 C 20.976562 -0.59375 17.894531 -0.554688 14.75 -0.484375 C 11.601562 -0.421875 8.984375 -0.257812 6.890625 0 L 6.890625 -3.9375 C 11.078125 -4.59375 14.21875 -5.707031 16.3125 -7.28125 C 18.414062 -8.851562 19.828125 -11.441406 20.546875 -15.046875 C 21.273438 -18.648438 21.640625 -23.597656 21.640625 -29.890625 L 21.640625 -118.40625 C 21.640625 -123.257812 21.273438 -126.832031 20.546875 -129.125 C 19.828125 -131.414062 18.382812 -132.988281 16.21875 -133.84375 C 14.0625 -134.695312 10.953125 -135.191406 6.890625 -135.328125 L 6.890625 -139.25 C 8.984375 -139.125 11.601562 -138.992188 14.75 -138.859375 C 17.894531 -138.734375 20.976562 -138.671875 24 -138.671875 C 27.144531 -138.671875 30.160156 -138.734375 33.046875 -138.859375 C 35.929688 -138.992188 38.550781 -139.125 40.90625 -139.25 L 117.03125 -45.4375 L 117.03125 -107 C 117.03125 -114.207031 116.632812 -119.742188 115.84375 -123.609375 C 115.0625 -127.484375 113.328125 -130.269531 110.640625 -131.96875 C 107.953125 -133.675781 103.722656 -134.796875 97.953125 -135.328125 L 97.953125 -139.25 C 100.441406 -139.125 103.71875 -138.992188 107.78125 -138.859375 C 111.84375 -138.734375 115.644531 -138.671875 119.1875 -138.671875 C 122.332031 -138.671875 125.445312 -138.734375 128.53125 -138.859375 C 131.613281 -138.992188 134.203125 -139.125 136.296875 -139.25 Z M 136.296875 -139.25 "/></g></g></g><g fill="#000000" fill-opacity="1"><g transform="translate(610.398384, 1103.363789)"><g><path d="M 27.109375 -54.984375 L 27.109375 -53.421875 C 25.347656 -53.367188 24.015625 -53.175781 23.109375 -52.84375 C 22.203125 -52.507812 21.59375 -51.890625 21.28125 -50.984375 C 20.96875 -50.078125 20.8125 -48.664062 20.8125 -46.75 L 20.8125 -7.296875 C 20.8125 -5.691406 20.925781 -4.5 21.15625 -3.71875 C 21.394531 -2.945312 21.863281 -2.429688 22.5625 -2.171875 C 23.257812 -1.910156 24.304688 -1.78125 25.703125 -1.78125 L 29.515625 -1.78125 C 31.273438 -1.78125 32.929688 -2.191406 34.484375 -3.015625 C 36.035156 -3.847656 37.429688 -5.03125 38.671875 -6.5625 C 39.910156 -8.09375 40.941406 -9.914062 41.765625 -12.03125 C 42.597656 -14.15625 43.222656 -16.515625 43.640625 -19.109375 L 45.421875 -19.109375 C 45.273438 -17.347656 45.203125 -15.066406 45.203125 -12.265625 C 45.203125 -11.078125 45.222656 -9.34375 45.265625 -7.0625 C 45.316406 -4.789062 45.472656 -2.4375 45.734375 0 C 43.097656 -0.101562 40.125 -0.164062 36.8125 -0.1875 C 33.5 -0.21875 30.546875 -0.234375 27.953125 -0.234375 C 26.660156 -0.234375 25.003906 -0.234375 22.984375 -0.234375 C 20.960938 -0.234375 18.785156 -0.21875 16.453125 -0.1875 C 14.128906 -0.164062 11.773438 -0.140625 9.390625 -0.109375 C 7.015625 -0.0859375 4.765625 -0.0507812 2.640625 0 L 2.640625 -1.546875 C 4.296875 -1.648438 5.535156 -1.859375 6.359375 -2.171875 C 7.191406 -2.484375 7.75 -3.101562 8.03125 -4.03125 C 8.320312 -4.96875 8.46875 -6.367188 8.46875 -8.234375 L 8.46875 -46.75 C 8.46875 -48.664062 8.320312 -50.078125 8.03125 -50.984375 C 7.75 -51.890625 7.179688 -52.507812 6.328125 -52.84375 C 5.472656 -53.175781 4.242188 -53.367188 2.640625 -53.421875 L 2.640625 -54.984375 C 3.929688 -54.929688 5.675781 -54.878906 7.875 -54.828125 C 10.082031 -54.773438 12.425781 -54.75 14.90625 -54.75 C 17.1875 -54.75 19.425781 -54.773438 21.625 -54.828125 C 23.820312 -54.878906 25.648438 -54.929688 27.109375 -54.984375 Z M 27.109375 -54.984375 "/></g></g></g><g fill="#000000" fill-opacity="1"><g transform="translate(674.080664, 1103.363789)"><g><path d="M 28.578125 -55.140625 L 47.453125 -6.515625 C 48.171875 -4.660156 48.984375 -3.378906 49.890625 -2.671875 C 50.796875 -1.972656 51.613281 -1.597656 52.34375 -1.546875 L 52.34375 0 C 50.789062 -0.101562 48.960938 -0.164062 46.859375 -0.1875 C 44.765625 -0.21875 42.65625 -0.234375 40.53125 -0.234375 C 38.15625 -0.234375 35.90625 -0.21875 33.78125 -0.1875 C 31.65625 -0.164062 29.972656 -0.101562 28.734375 0 L 28.734375 -1.546875 C 31.367188 -1.648438 33.035156 -2.101562 33.734375 -2.90625 C 34.441406 -3.707031 34.273438 -5.429688 33.234375 -8.078125 L 20.03125 -44.1875 L 21.4375 -46.203125 L 9.625 -15.453125 C 8.488281 -12.609375 7.800781 -10.28125 7.5625 -8.46875 C 7.332031 -6.65625 7.460938 -5.253906 7.953125 -4.265625 C 8.453125 -3.285156 9.253906 -2.597656 10.359375 -2.203125 C 11.472656 -1.816406 12.804688 -1.597656 14.359375 -1.546875 L 14.359375 0 C 12.648438 -0.101562 11.019531 -0.164062 9.46875 -0.1875 C 7.914062 -0.21875 6.335938 -0.234375 4.734375 -0.234375 C 3.597656 -0.234375 2.523438 -0.21875 1.515625 -0.1875 C 0.503906 -0.164062 -0.390625 -0.101562 -1.171875 0 L -1.171875 -1.546875 C -0.078125 -1.753906 1.035156 -2.453125 2.171875 -3.640625 C 3.316406 -4.835938 4.429688 -6.859375 5.515625 -9.703125 L 23.21875 -55.140625 C 24.050781 -55.085938 24.941406 -55.0625 25.890625 -55.0625 C 26.847656 -55.0625 27.742188 -55.085938 28.578125 -55.140625 Z M 34.015625 -22.359375 L 34.015625 -20.8125 L 10.875 -20.8125 L 11.65625 -22.359375 Z M 34.015625 -22.359375 "/></g></g></g><g fill="#000000" fill-opacity="1"><g transform="translate(742.111904, 1103.363789)"><g><path d="M 75.640625 -54.984375 L 75.640625 -53.421875 C 74.492188 -53.015625 73.300781 -52.125 72.0625 -50.75 C 70.820312 -49.375 69.734375 -47.1875 68.796875 -44.1875 L 55.140625 0.15625 C 54.722656 0.101562 54.28125 0.078125 53.8125 0.078125 C 53.34375 0.078125 52.878906 0.078125 52.421875 0.078125 C 51.953125 0.078125 51.484375 0.078125 51.015625 0.078125 C 50.554688 0.078125 50.117188 0.101562 49.703125 0.15625 L 33.390625 -49.234375 C 32.867188 -50.835938 32.234375 -51.921875 31.484375 -52.484375 C 30.734375 -53.054688 29.945312 -53.367188 29.125 -53.421875 L 29.125 -54.984375 C 30.570312 -54.929688 32.289062 -54.878906 34.28125 -54.828125 C 36.28125 -54.773438 38.257812 -54.75 40.21875 -54.75 C 42.5 -54.75 44.632812 -54.773438 46.625 -54.828125 C 48.625 -54.878906 50.21875 -54.929688 51.40625 -54.984375 L 51.40625 -53.421875 C 49.851562 -53.367188 48.625 -53.1875 47.71875 -52.875 C 46.8125 -52.570312 46.289062 -51.976562 46.15625 -51.09375 C 46.03125 -50.21875 46.28125 -48.820312 46.90625 -46.90625 L 57.9375 -13.203125 L 56.140625 -10.015625 L 64.921875 -37.890625 C 66.160156 -41.828125 66.753906 -44.910156 66.703125 -47.140625 C 66.648438 -49.367188 66.054688 -50.957031 64.921875 -51.90625 C 63.785156 -52.863281 62.15625 -53.367188 60.03125 -53.421875 L 60.03125 -54.984375 C 61.789062 -54.929688 63.445312 -54.878906 65 -54.828125 C 66.550781 -54.773438 68.101562 -54.75 69.65625 -54.75 C 70.84375 -54.75 71.941406 -54.773438 72.953125 -54.828125 C 73.960938 -54.878906 74.859375 -54.929688 75.640625 -54.984375 Z M 20.1875 -54.984375 L 20.1875 -53.421875 C 19.15625 -53.265625 18.429688 -52.890625 18.015625 -52.296875 C 17.597656 -51.703125 17.425781 -50.925781 17.5 -49.96875 C 17.582031 -49.007812 17.804688 -47.988281 18.171875 -46.90625 L 30.046875 -12.421875 L 27.953125 -9.625 L 37.890625 -38.671875 L 38.984375 -36.578125 L 26.796875 0.15625 C 26.378906 0.101562 25.9375 0.078125 25.46875 0.078125 C 25 0.078125 24.535156 0.078125 24.078125 0.078125 C 23.609375 0.078125 23.140625 0.078125 22.671875 0.078125 C 22.210938 0.078125 21.773438 0.101562 21.359375 0.15625 L 3.953125 -48.453125 C 3.285156 -50.367188 2.5 -51.660156 1.59375 -52.328125 C 0.6875 -53.003906 -0.15625 -53.367188 -0.9375 -53.421875 L -0.9375 -54.984375 C 0.613281 -54.929688 2.453125 -54.878906 4.578125 -54.828125 C 6.703125 -54.773438 8.722656 -54.75 10.640625 -54.75 C 12.710938 -54.75 14.5625 -54.773438 16.1875 -54.828125 C 17.820312 -54.878906 19.15625 -54.929688 20.1875 -54.984375 Z M 20.1875 -54.984375 "/></g></g></g><g fill="#000000" fill-opacity="1"><g transform="translate(833.518833, 1103.363789)"><g><path d="M 53.8125 -54.984375 L 53.8125 -53.421875 C 52.15625 -53.210938 50.910156 -52.785156 50.078125 -52.140625 C 49.253906 -51.492188 48.695312 -50.472656 48.40625 -49.078125 C 48.125 -47.679688 47.984375 -45.710938 47.984375 -43.171875 L 47.984375 0.15625 C 47.367188 0.101562 46.738281 0.078125 46.09375 0.078125 C 45.445312 0.078125 44.757812 0.101562 44.03125 0.15625 L 10.328125 -42.5625 L 10.328125 -12.734375 C 10.328125 -9.890625 10.484375 -7.703125 10.796875 -6.171875 C 11.109375 -4.648438 11.789062 -3.5625 12.84375 -2.90625 C 13.90625 -2.257812 15.578125 -1.804688 17.859375 -1.546875 L 17.859375 0 C 16.878906 -0.101562 15.585938 -0.164062 13.984375 -0.1875 C 12.378906 -0.21875 10.875 -0.234375 9.46875 -0.234375 C 8.28125 -0.234375 7.0625 -0.21875 5.8125 -0.1875 C 4.570312 -0.164062 3.539062 -0.101562 2.71875 0 L 2.71875 -1.546875 C 4.375 -1.804688 5.613281 -2.25 6.4375 -2.875 C 7.269531 -3.5 7.828125 -4.519531 8.109375 -5.9375 C 8.398438 -7.363281 8.546875 -9.316406 8.546875 -11.796875 L 8.546875 -46.75 C 8.546875 -48.664062 8.398438 -50.078125 8.109375 -50.984375 C 7.828125 -51.890625 7.257812 -52.507812 6.40625 -52.84375 C 5.550781 -53.175781 4.320312 -53.367188 2.71875 -53.421875 L 2.71875 -54.984375 C 3.539062 -54.929688 4.570312 -54.878906 5.8125 -54.828125 C 7.0625 -54.773438 8.28125 -54.75 9.46875 -54.75 C 10.71875 -54.75 11.910156 -54.773438 13.046875 -54.828125 C 14.179688 -54.878906 15.21875 -54.929688 16.15625 -54.984375 L 46.203125 -17.9375 L 46.203125 -42.25 C 46.203125 -45.09375 46.046875 -47.273438 45.734375 -48.796875 C 45.429688 -50.328125 44.75 -51.425781 43.6875 -52.09375 C 42.625 -52.769531 40.953125 -53.210938 38.671875 -53.421875 L 38.671875 -54.984375 C 39.648438 -54.929688 40.941406 -54.878906 42.546875 -54.828125 C 44.160156 -54.773438 45.664062 -54.75 47.0625 -54.75 C 48.300781 -54.75 49.53125 -54.773438 50.75 -54.828125 C 51.96875 -54.878906 52.988281 -54.929688 53.8125 -54.984375 Z M 53.8125 -54.984375 "/></g></g></g><g fill="#000000" fill-opacity="1"><g transform="translate(503.804643, 1211.36378)"><g><path d="M 22.046875 -55.984375 C 25.109375 -55.984375 27.46875 -55.660156 29.125 -55.015625 C 30.78125 -54.367188 32.203125 -53.6875 33.390625 -52.96875 C 34.015625 -52.601562 34.519531 -52.328125 34.90625 -52.140625 C 35.289062 -51.960938 35.664062 -51.875 36.03125 -51.875 C 36.550781 -51.875 36.925781 -52.15625 37.15625 -52.71875 C 37.394531 -53.289062 37.585938 -54.148438 37.734375 -55.296875 L 39.53125 -55.296875 C 39.476562 -54.304688 39.410156 -53.125 39.328125 -51.75 C 39.253906 -50.382812 39.203125 -48.585938 39.171875 -46.359375 C 39.148438 -44.128906 39.140625 -41.203125 39.140625 -37.578125 L 37.359375 -37.578125 C 37.148438 -40.273438 36.523438 -42.890625 35.484375 -45.421875 C 34.453125 -47.960938 32.988281 -50.046875 31.09375 -51.671875 C 29.207031 -53.304688 26.894531 -54.125 24.15625 -54.125 C 21.664062 -54.125 19.617188 -53.425781 18.015625 -52.03125 C 16.410156 -50.632812 15.609375 -48.691406 15.609375 -46.203125 C 15.609375 -44.128906 16.125 -42.351562 17.15625 -40.875 C 18.195312 -39.40625 19.710938 -37.972656 21.703125 -36.578125 C 23.691406 -35.179688 26.113281 -33.5 28.96875 -31.53125 C 31.445312 -29.925781 33.671875 -28.320312 35.640625 -26.71875 C 37.609375 -25.113281 39.1875 -23.300781 40.375 -21.28125 C 41.570312 -19.257812 42.171875 -16.851562 42.171875 -14.0625 C 42.171875 -10.644531 41.273438 -7.820312 39.484375 -5.59375 C 37.703125 -3.363281 35.359375 -1.691406 32.453125 -0.578125 C 29.554688 0.535156 26.375 1.09375 22.90625 1.09375 C 19.695312 1.09375 17.132812 0.78125 15.21875 0.15625 C 13.300781 -0.464844 11.695312 -1.113281 10.40625 -1.78125 C 9.269531 -2.507812 8.390625 -2.875 7.765625 -2.875 C 7.242188 -2.875 6.867188 -2.585938 6.640625 -2.015625 C 6.410156 -1.453125 6.21875 -0.597656 6.0625 0.546875 L 4.265625 0.546875 C 4.367188 -0.691406 4.429688 -2.140625 4.453125 -3.796875 C 4.484375 -5.460938 4.507812 -7.625 4.53125 -10.28125 C 4.5625 -12.945312 4.578125 -16.328125 4.578125 -20.421875 L 6.375 -20.421875 C 6.570312 -17.003906 7.148438 -13.804688 8.109375 -10.828125 C 9.066406 -7.859375 10.539062 -5.46875 12.53125 -3.65625 C 14.53125 -1.84375 17.1875 -0.9375 20.5 -0.9375 C 22.3125 -0.9375 23.925781 -1.257812 25.34375 -1.90625 C 26.769531 -2.550781 27.921875 -3.519531 28.796875 -4.8125 C 29.679688 -6.101562 30.125 -7.707031 30.125 -9.625 C 30.125 -11.800781 29.617188 -13.691406 28.609375 -15.296875 C 27.609375 -16.898438 26.238281 -18.398438 24.5 -19.796875 C 22.769531 -21.203125 20.765625 -22.628906 18.484375 -24.078125 C 16.046875 -25.679688 13.765625 -27.285156 11.640625 -28.890625 C 9.523438 -30.492188 7.832031 -32.332031 6.5625 -34.40625 C 5.289062 -36.476562 4.65625 -38.9375 4.65625 -41.78125 C 4.65625 -45.039062 5.46875 -47.71875 7.09375 -49.8125 C 8.726562 -51.914062 10.878906 -53.46875 13.546875 -54.46875 C 16.210938 -55.476562 19.046875 -55.984375 22.046875 -55.984375 Z M 22.046875 -55.984375 "/></g></g></g><g fill="#000000" fill-opacity="1"><g transform="translate(565.39009, 1211.36378)"><g><path d="M 44.1875 -54.984375 C 43.976562 -52.703125 43.832031 -50.5 43.75 -48.375 C 43.675781 -46.257812 43.640625 -44.628906 43.640625 -43.484375 C 43.640625 -42.453125 43.664062 -41.46875 43.71875 -40.53125 C 43.769531 -39.601562 43.820312 -38.828125 43.875 -38.203125 L 42.09375 -38.203125 C 41.570312 -41.984375 40.765625 -44.972656 39.671875 -47.171875 C 38.585938 -49.378906 37.175781 -50.929688 35.4375 -51.828125 C 33.707031 -52.734375 31.679688 -53.1875 29.359375 -53.1875 L 26.171875 -53.1875 C 24.671875 -53.1875 23.53125 -53.054688 22.75 -52.796875 C 21.976562 -52.546875 21.460938 -52.03125 21.203125 -51.25 C 20.941406 -50.476562 20.8125 -49.289062 20.8125 -47.6875 L 20.8125 -7.296875 C 20.8125 -5.691406 20.941406 -4.5 21.203125 -3.71875 C 21.460938 -2.945312 21.976562 -2.429688 22.75 -2.171875 C 23.53125 -1.910156 24.671875 -1.78125 26.171875 -1.78125 L 29.96875 -1.78125 C 32.300781 -1.78125 34.359375 -2.285156 36.140625 -3.296875 C 37.929688 -4.304688 39.460938 -6.023438 40.734375 -8.453125 C 42.003906 -10.890625 42.972656 -14.179688 43.640625 -18.328125 L 45.421875 -18.328125 C 45.273438 -16.671875 45.203125 -14.492188 45.203125 -11.796875 C 45.203125 -10.609375 45.222656 -8.925781 45.265625 -6.75 C 45.316406 -4.582031 45.472656 -2.332031 45.734375 0 C 43.097656 -0.101562 40.125 -0.164062 36.8125 -0.1875 C 33.5 -0.21875 30.546875 -0.234375 27.953125 -0.234375 C 26.660156 -0.234375 25.003906 -0.234375 22.984375 -0.234375 C 20.960938 -0.234375 18.785156 -0.21875 16.453125 -0.1875 C 14.128906 -0.164062 11.773438 -0.140625 9.390625 -0.109375 C 7.015625 -0.0859375 4.765625 -0.0507812 2.640625 0 L 2.640625 -1.546875 C 4.296875 -1.648438 5.535156 -1.859375 6.359375 -2.171875 C 7.191406 -2.484375 7.75 -3.101562 8.03125 -4.03125 C 8.320312 -4.96875 8.46875 -6.367188 8.46875 -8.234375 L 8.46875 -46.75 C 8.46875 -48.664062 8.320312 -50.078125 8.03125 -50.984375 C 7.75 -51.890625 7.179688 -52.507812 6.328125 -52.84375 C 5.472656 -53.175781 4.242188 -53.367188 2.640625 -53.421875 L 2.640625 -54.984375 C 4.765625 -54.929688 7.015625 -54.890625 9.390625 -54.859375 C 11.773438 -54.835938 14.128906 -54.8125 16.453125 -54.78125 C 18.785156 -54.757812 20.960938 -54.75 22.984375 -54.75 C 25.003906 -54.75 26.660156 -54.75 27.953125 -54.75 C 30.335938 -54.75 33.039062 -54.757812 36.0625 -54.78125 C 39.09375 -54.8125 41.800781 -54.878906 44.1875 -54.984375 Z M 32.078125 -28.421875 C 32.078125 -28.421875 32.078125 -28.160156 32.078125 -27.640625 C 32.078125 -27.128906 32.078125 -26.875 32.078125 -26.875 L 18.484375 -26.875 C 18.484375 -26.875 18.484375 -27.128906 18.484375 -27.640625 C 18.484375 -28.160156 18.484375 -28.421875 18.484375 -28.421875 Z M 34.328125 -38.671875 C 34.117188 -35.722656 34.023438 -33.472656 34.046875 -31.921875 C 34.078125 -30.367188 34.09375 -28.941406 34.09375 -27.640625 C 34.09375 -26.347656 34.117188 -24.925781 34.171875 -23.375 C 34.222656 -21.820312 34.351562 -19.570312 34.5625 -16.625 L 32.765625 -16.625 C 32.503906 -18.4375 32.023438 -20.117188 31.328125 -21.671875 C 30.628906 -23.222656 29.632812 -24.476562 28.34375 -25.4375 C 27.050781 -26.394531 25.367188 -26.875 23.296875 -26.875 L 23.296875 -28.421875 C 24.847656 -28.421875 26.164062 -28.742188 27.25 -29.390625 C 28.34375 -30.035156 29.238281 -30.890625 29.9375 -31.953125 C 30.632812 -33.015625 31.191406 -34.140625 31.609375 -35.328125 C 32.023438 -36.523438 32.332031 -37.640625 32.53125 -38.671875 Z M 34.328125 -38.671875 "/></g></g></g><g fill="#000000" fill-opacity="1"><g transform="translate(630.858552, 1211.36378)"><g><path d="M 2.640625 -54.984375 C 3.929688 -54.929688 5.675781 -54.878906 7.875 -54.828125 C 10.082031 -54.773438 12.269531 -54.75 14.4375 -54.75 C 16.925781 -54.75 19.332031 -54.773438 21.65625 -54.828125 C 23.988281 -54.878906 25.648438 -54.90625 26.640625 -54.90625 C 31.453125 -54.90625 35.445312 -54.375 38.625 -53.3125 C 41.8125 -52.25 44.191406 -50.707031 45.765625 -48.6875 C 47.347656 -46.664062 48.140625 -44.234375 48.140625 -41.390625 C 48.140625 -39.628906 47.773438 -37.851562 47.046875 -36.0625 C 46.328125 -34.28125 45.097656 -32.625 43.359375 -31.09375 C 41.628906 -29.570312 39.265625 -28.359375 36.265625 -27.453125 C 33.265625 -26.546875 29.484375 -26.09375 24.921875 -26.09375 L 17.46875 -26.09375 L 17.46875 -27.640625 L 24.15625 -27.640625 C 27.207031 -27.640625 29.519531 -28.222656 31.09375 -29.390625 C 32.675781 -30.554688 33.765625 -32.109375 34.359375 -34.046875 C 34.953125 -35.992188 35.25 -38.15625 35.25 -40.53125 C 35.25 -44.625 34.523438 -47.796875 33.078125 -50.046875 C 31.628906 -52.296875 29.144531 -53.421875 25.625 -53.421875 C 23.601562 -53.421875 22.296875 -52.976562 21.703125 -52.09375 C 21.109375 -51.21875 20.8125 -49.4375 20.8125 -46.75 L 20.8125 -8.234375 C 20.8125 -6.367188 20.953125 -4.96875 21.234375 -4.03125 C 21.523438 -3.101562 22.082031 -2.484375 22.90625 -2.171875 C 23.738281 -1.859375 24.984375 -1.648438 26.640625 -1.546875 L 26.640625 0 C 25.242188 -0.101562 23.484375 -0.164062 21.359375 -0.1875 C 19.234375 -0.21875 17.082031 -0.234375 14.90625 -0.234375 C 12.425781 -0.234375 10.082031 -0.21875 7.875 -0.1875 C 5.675781 -0.164062 3.929688 -0.101562 2.640625 0 L 2.640625 -1.546875 C 4.296875 -1.648438 5.535156 -1.859375 6.359375 -2.171875 C 7.191406 -2.484375 7.75 -3.101562 8.03125 -4.03125 C 8.320312 -4.96875 8.46875 -6.367188 8.46875 -8.234375 L 8.46875 -46.75 C 8.46875 -48.664062 8.320312 -50.078125 8.03125 -50.984375 C 7.75 -51.890625 7.179688 -52.507812 6.328125 -52.84375 C 5.472656 -53.175781 4.242188 -53.367188 2.640625 -53.421875 Z M 17.3125 -27.40625 C 19.539062 -27.351562 21.46875 -27.25 23.09375 -27.09375 C 24.726562 -26.945312 26.164062 -26.804688 27.40625 -26.671875 C 28.65625 -26.546875 29.769531 -26.457031 30.75 -26.40625 C 35.457031 -25.988281 38.9375 -24.976562 41.1875 -23.375 C 43.445312 -21.769531 44.910156 -19.363281 45.578125 -16.15625 L 47.375 -8.15625 C 47.832031 -6.082031 48.320312 -4.628906 48.84375 -3.796875 C 49.363281 -2.972656 50.113281 -2.5625 51.09375 -2.5625 C 51.769531 -2.613281 52.328125 -2.78125 52.765625 -3.0625 C 53.203125 -3.351562 53.679688 -3.78125 54.203125 -4.34375 L 55.296875 -3.421875 C 53.890625 -1.816406 52.382812 -0.664062 50.78125 0.03125 C 49.175781 0.738281 47.238281 1.09375 44.96875 1.09375 C 42.164062 1.09375 39.859375 0.496094 38.046875 -0.6875 C 36.234375 -1.882812 35.046875 -4.085938 34.484375 -7.296875 L 33.078125 -15.0625 C 32.710938 -17.238281 32.269531 -19.140625 31.75 -20.765625 C 31.238281 -22.398438 30.53125 -23.695312 29.625 -24.65625 C 28.71875 -25.613281 27.460938 -26.09375 25.859375 -26.09375 L 17.46875 -26.09375 Z M 17.3125 -27.40625 "/></g></g></g><g fill="#000000" fill-opacity="1"><g transform="translate(700.831282, 1211.36378)"><g><path d="M 52.65625 -54.984375 L 52.65625 -53.421875 C 51.507812 -53.015625 50.300781 -52.109375 49.03125 -50.703125 C 47.769531 -49.304688 46.59375 -47.132812 45.5 -44.1875 L 29.125 0.15625 C 28.707031 0.101562 28.265625 0.078125 27.796875 0.078125 C 27.335938 0.078125 26.875 0.078125 26.40625 0.078125 C 25.988281 0.078125 25.546875 0.078125 25.078125 0.078125 C 24.617188 0.078125 24.179688 0.101562 23.765625 0.15625 L 3.953125 -48.453125 C 3.234375 -50.316406 2.429688 -51.597656 1.546875 -52.296875 C 0.671875 -52.992188 -0.15625 -53.367188 -0.9375 -53.421875 L -0.9375 -54.984375 C 0.613281 -54.929688 2.4375 -54.878906 4.53125 -54.828125 C 6.632812 -54.773438 8.75 -54.75 10.875 -54.75 C 13.25 -54.75 15.484375 -54.773438 17.578125 -54.828125 C 19.679688 -54.878906 21.378906 -54.929688 22.671875 -54.984375 L 22.671875 -53.421875 C 21.015625 -53.367188 19.71875 -53.175781 18.78125 -52.84375 C 17.851562 -52.507812 17.335938 -51.890625 17.234375 -50.984375 C 17.128906 -50.078125 17.441406 -48.71875 18.171875 -46.90625 L 32.3125 -10.953125 L 30.671875 -9.015625 L 41.390625 -37.890625 C 42.785156 -41.773438 43.507812 -44.832031 43.5625 -47.0625 C 43.613281 -49.289062 43.066406 -50.894531 41.921875 -51.875 C 40.785156 -52.851562 39.160156 -53.367188 37.046875 -53.421875 L 37.046875 -54.984375 C 38.804688 -54.929688 40.460938 -54.878906 42.015625 -54.828125 C 43.566406 -54.773438 45.144531 -54.75 46.75 -54.75 C 47.882812 -54.75 48.957031 -54.773438 49.96875 -54.828125 C 50.976562 -54.878906 51.875 -54.929688 52.65625 -54.984375 Z M 52.65625 -54.984375 "/></g></g></g><g fill="#000000" fill-opacity="1"><g transform="translate(768.940194, 1211.36378)"><g><path d="M 26.640625 -54.984375 L 26.640625 -53.421875 C 24.984375 -53.367188 23.726562 -53.175781 22.875 -52.84375 C 22.019531 -52.507812 21.460938 -51.890625 21.203125 -50.984375 C 20.941406 -50.078125 20.8125 -48.664062 20.8125 -46.75 L 20.8125 -8.234375 C 20.8125 -6.367188 20.953125 -4.96875 21.234375 -4.03125 C 21.523438 -3.101562 22.082031 -2.484375 22.90625 -2.171875 C 23.738281 -1.859375 24.984375 -1.648438 26.640625 -1.546875 L 26.640625 0 C 25.242188 -0.101562 23.484375 -0.164062 21.359375 -0.1875 C 19.234375 -0.21875 17.082031 -0.234375 14.90625 -0.234375 C 12.375 -0.234375 10.03125 -0.21875 7.875 -0.1875 C 5.726562 -0.164062 3.984375 -0.101562 2.640625 0 L 2.640625 -1.546875 C 4.296875 -1.648438 5.535156 -1.859375 6.359375 -2.171875 C 7.191406 -2.484375 7.75 -3.101562 8.03125 -4.03125 C 8.320312 -4.96875 8.46875 -6.367188 8.46875 -8.234375 L 8.46875 -46.75 C 8.46875 -48.664062 8.320312 -50.078125 8.03125 -50.984375 C 7.75 -51.890625 7.179688 -52.507812 6.328125 -52.84375 C 5.472656 -53.175781 4.242188 -53.367188 2.640625 -53.421875 L 2.640625 -54.984375 C 3.984375 -54.929688 5.726562 -54.878906 7.875 -54.828125 C 10.03125 -54.773438 12.375 -54.75 14.90625 -54.75 C 17.082031 -54.75 19.234375 -54.773438 21.359375 -54.828125 C 23.484375 -54.878906 25.242188 -54.929688 26.640625 -54.984375 Z M 26.640625 -54.984375 "/></g></g></g><g fill="#000000" fill-opacity="1"><g transform="translate(814.372342, 1211.36378)"><g><path d="M 30.828125 -56.0625 C 34.242188 -56.0625 37.050781 -55.554688 39.25 -54.546875 C 41.457031 -53.546875 43.414062 -52.367188 45.125 -51.015625 C 46.15625 -50.242188 46.941406 -50.15625 47.484375 -50.75 C 48.023438 -51.34375 48.398438 -52.753906 48.609375 -54.984375 L 50.40625 -54.984375 C 50.300781 -52.960938 50.222656 -50.515625 50.171875 -47.640625 C 50.117188 -44.765625 50.09375 -40.945312 50.09375 -36.1875 L 48.296875 -36.1875 C 48.035156 -38.570312 47.695312 -40.601562 47.28125 -42.28125 C 46.875 -43.96875 46.304688 -45.457031 45.578125 -46.75 C 44.859375 -48.039062 43.828125 -49.207031 42.484375 -50.25 C 41.179688 -51.539062 39.675781 -52.492188 37.96875 -53.109375 C 36.257812 -53.734375 34.472656 -54.046875 32.609375 -54.046875 C 29.816406 -54.046875 27.4375 -53.304688 25.46875 -51.828125 C 23.5 -50.359375 21.90625 -48.351562 20.6875 -45.8125 C 19.476562 -43.28125 18.585938 -40.421875 18.015625 -37.234375 C 17.441406 -34.046875 17.15625 -30.742188 17.15625 -27.328125 C 17.15625 -23.859375 17.453125 -20.53125 18.046875 -17.34375 C 18.648438 -14.164062 19.582031 -11.332031 20.84375 -8.84375 C 22.113281 -6.363281 23.757812 -4.398438 25.78125 -2.953125 C 27.800781 -1.503906 30.179688 -0.78125 32.921875 -0.78125 C 34.628906 -0.78125 36.347656 -1.101562 38.078125 -1.75 C 39.816406 -2.394531 41.3125 -3.335938 42.5625 -4.578125 C 44.570312 -6.128906 45.941406 -8.054688 46.671875 -10.359375 C 47.398438 -12.671875 47.941406 -15.738281 48.296875 -19.5625 L 50.09375 -19.5625 C 50.09375 -14.644531 50.117188 -10.671875 50.171875 -7.640625 C 50.222656 -4.617188 50.300781 -2.070312 50.40625 0 L 48.609375 0 C 48.398438 -2.226562 48.050781 -3.625 47.5625 -4.1875 C 47.070312 -4.757812 46.257812 -4.679688 45.125 -3.953125 C 43.207031 -2.609375 41.171875 -1.429688 39.015625 -0.421875 C 36.867188 0.585938 34.113281 1.09375 30.75 1.09375 C 25.257812 1.09375 20.457031 -0.0195312 16.34375 -2.25 C 12.226562 -4.476562 9.03125 -7.6875 6.75 -11.875 C 4.476562 -16.070312 3.34375 -21.125 3.34375 -27.03125 C 3.34375 -32.820312 4.519531 -37.890625 6.875 -42.234375 C 9.226562 -46.585938 12.460938 -49.976562 16.578125 -52.40625 C 20.691406 -54.84375 25.441406 -56.0625 30.828125 -56.0625 Z M 30.828125 -56.0625 "/></g></g></g><g fill="#000000" fill-opacity="1"><g transform="translate(885.354658, 1211.36378)"><g><path d="M 44.1875 -54.984375 C 43.976562 -52.703125 43.832031 -50.5 43.75 -48.375 C 43.675781 -46.257812 43.640625 -44.628906 43.640625 -43.484375 C 43.640625 -42.453125 43.664062 -41.46875 43.71875 -40.53125 C 43.769531 -39.601562 43.820312 -38.828125 43.875 -38.203125 L 42.09375 -38.203125 C 41.570312 -41.984375 40.765625 -44.972656 39.671875 -47.171875 C 38.585938 -49.378906 37.175781 -50.929688 35.4375 -51.828125 C 33.707031 -52.734375 31.679688 -53.1875 29.359375 -53.1875 L 26.171875 -53.1875 C 24.671875 -53.1875 23.53125 -53.054688 22.75 -52.796875 C 21.976562 -52.546875 21.460938 -52.03125 21.203125 -51.25 C 20.941406 -50.476562 20.8125 -49.289062 20.8125 -47.6875 L 20.8125 -7.296875 C 20.8125 -5.691406 20.941406 -4.5 21.203125 -3.71875 C 21.460938 -2.945312 21.976562 -2.429688 22.75 -2.171875 C 23.53125 -1.910156 24.671875 -1.78125 26.171875 -1.78125 L 29.96875 -1.78125 C 32.300781 -1.78125 34.359375 -2.285156 36.140625 -3.296875 C 37.929688 -4.304688 39.460938 -6.023438 40.734375 -8.453125 C 42.003906 -10.890625 42.972656 -14.179688 43.640625 -18.328125 L 45.421875 -18.328125 C 45.273438 -16.671875 45.203125 -14.492188 45.203125 -11.796875 C 45.203125 -10.609375 45.222656 -8.925781 45.265625 -6.75 C 45.316406 -4.582031 45.472656 -2.332031 45.734375 0 C 43.097656 -0.101562 40.125 -0.164062 36.8125 -0.1875 C 33.5 -0.21875 30.546875 -0.234375 27.953125 -0.234375 C 26.660156 -0.234375 25.003906 -0.234375 22.984375 -0.234375 C 20.960938 -0.234375 18.785156 -0.21875 16.453125 -0.1875 C 14.128906 -0.164062 11.773438 -0.140625 9.390625 -0.109375 C 7.015625 -0.0859375 4.765625 -0.0507812 2.640625 0 L 2.640625 -1.546875 C 4.296875 -1.648438 5.535156 -1.859375 6.359375 -2.171875 C 7.191406 -2.484375 7.75 -3.101562 8.03125 -4.03125 C 8.320312 -4.96875 8.46875 -6.367188 8.46875 -8.234375 L 8.46875 -46.75 C 8.46875 -48.664062 8.320312 -50.078125 8.03125 -50.984375 C 7.75 -51.890625 7.179688 -52.507812 6.328125 -52.84375 C 5.472656 -53.175781 4.242188 -53.367188 2.640625 -53.421875 L 2.640625 -54.984375 C 4.765625 -54.929688 7.015625 -54.890625 9.390625 -54.859375 C 11.773438 -54.835938 14.128906 -54.8125 16.453125 -54.78125 C 18.785156 -54.757812 20.960938 -54.75 22.984375 -54.75 C 25.003906 -54.75 26.660156 -54.75 27.953125 -54.75 C 30.335938 -54.75 33.039062 -54.757812 36.0625 -54.78125 C 39.09375 -54.8125 41.800781 -54.878906 44.1875 -54.984375 Z M 32.078125 -28.421875 C 32.078125 -28.421875 32.078125 -28.160156 32.078125 -27.640625 C 32.078125 -27.128906 32.078125 -26.875 32.078125 -26.875 L 18.484375 -26.875 C 18.484375 -26.875 18.484375 -27.128906 18.484375 -27.640625 C 18.484375 -28.160156 18.484375 -28.421875 18.484375 -28.421875 Z M 34.328125 -38.671875 C 34.117188 -35.722656 34.023438 -33.472656 34.046875 -31.921875 C 34.078125 -30.367188 34.09375 -28.941406 34.09375 -27.640625 C 34.09375 -26.347656 34.117188 -24.925781 34.171875 -23.375 C 34.222656 -21.820312 34.351562 -19.570312 34.5625 -16.625 L 32.765625 -16.625 C 32.503906 -18.4375 32.023438 -20.117188 31.328125 -21.671875 C 30.628906 -23.222656 29.632812 -24.476562 28.34375 -25.4375 C 27.050781 -26.394531 25.367188 -26.875 23.296875 -26.875 L 23.296875 -28.421875 C 24.847656 -28.421875 26.164062 -28.742188 27.25 -29.390625 C 28.34375 -30.035156 29.238281 -30.890625 29.9375 -31.953125 C 30.632812 -33.015625 31.191406 -34.140625 31.609375 -35.328125 C 32.023438 -36.523438 32.332031 -37.640625 32.53125 -38.671875 Z M 34.328125 -38.671875 "/></g></g></g><g fill="#000000" fill-opacity="1"><g transform="translate(950.823143, 1211.36378)"><g><path d="M 22.046875 -55.984375 C 25.109375 -55.984375 27.46875 -55.660156 29.125 -55.015625 C 30.78125 -54.367188 32.203125 -53.6875 33.390625 -52.96875 C 34.015625 -52.601562 34.519531 -52.328125 34.90625 -52.140625 C 35.289062 -51.960938 35.664062 -51.875 36.03125 -51.875 C 36.550781 -51.875 36.925781 -52.15625 37.15625 -52.71875 C 37.394531 -53.289062 37.585938 -54.148438 37.734375 -55.296875 L 39.53125 -55.296875 C 39.476562 -54.304688 39.410156 -53.125 39.328125 -51.75 C 39.253906 -50.382812 39.203125 -48.585938 39.171875 -46.359375 C 39.148438 -44.128906 39.140625 -41.203125 39.140625 -37.578125 L 37.359375 -37.578125 C 37.148438 -40.273438 36.523438 -42.890625 35.484375 -45.421875 C 34.453125 -47.960938 32.988281 -50.046875 31.09375 -51.671875 C 29.207031 -53.304688 26.894531 -54.125 24.15625 -54.125 C 21.664062 -54.125 19.617188 -53.425781 18.015625 -52.03125 C 16.410156 -50.632812 15.609375 -48.691406 15.609375 -46.203125 C 15.609375 -44.128906 16.125 -42.351562 17.15625 -40.875 C 18.195312 -39.40625 19.710938 -37.972656 21.703125 -36.578125 C 23.691406 -35.179688 26.113281 -33.5 28.96875 -31.53125 C 31.445312 -29.925781 33.671875 -28.320312 35.640625 -26.71875 C 37.609375 -25.113281 39.1875 -23.300781 40.375 -21.28125 C 41.570312 -19.257812 42.171875 -16.851562 42.171875 -14.0625 C 42.171875 -10.644531 41.273438 -7.820312 39.484375 -5.59375 C 37.703125 -3.363281 35.359375 -1.691406 32.453125 -0.578125 C 29.554688 0.535156 26.375 1.09375 22.90625 1.09375 C 19.695312 1.09375 17.132812 0.78125 15.21875 0.15625 C 13.300781 -0.464844 11.695312 -1.113281 10.40625 -1.78125 C 9.269531 -2.507812 8.390625 -2.875 7.765625 -2.875 C 7.242188 -2.875 6.867188 -2.585938 6.640625 -2.015625 C 6.410156 -1.453125 6.21875 -0.597656 6.0625 0.546875 L 4.265625 0.546875 C 4.367188 -0.691406 4.429688 -2.140625 4.453125 -3.796875 C 4.484375 -5.460938 4.507812 -7.625 4.53125 -10.28125 C 4.5625 -12.945312 4.578125 -16.328125 4.578125 -20.421875 L 6.375 -20.421875 C 6.570312 -17.003906 7.148438 -13.804688 8.109375 -10.828125 C 9.066406 -7.859375 10.539062 -5.46875 12.53125 -3.65625 C 14.53125 -1.84375 17.1875 -0.9375 20.5 -0.9375 C 22.3125 -0.9375 23.925781 -1.257812 25.34375 -1.90625 C 26.769531 -2.550781 27.921875 -3.519531 28.796875 -4.8125 C 29.679688 -6.101562 30.125 -7.707031 30.125 -9.625 C 30.125 -11.800781 29.617188 -13.691406 28.609375 -15.296875 C 27.609375 -16.898438 26.238281 -18.398438 24.5 -19.796875 C 22.769531 -21.203125 20.765625 -22.628906 18.484375 -24.078125 C 16.046875 -25.679688 13.765625 -27.285156 11.640625 -28.890625 C 9.523438 -30.492188 7.832031 -32.332031 6.5625 -34.40625 C 5.289062 -36.476562 4.65625 -38.9375 4.65625 -41.78125 C 4.65625 -45.039062 5.46875 -47.71875 7.09375 -49.8125 C 8.726562 -51.914062 10.878906 -53.46875 13.546875 -54.46875 C 16.210938 -55.476562 19.046875 -55.984375 22.046875 -55.984375 Z M 22.046875 -55.984375 "/></g></g></g><path stroke-linecap="butt" transform="matrix(0.75, 0, 0, 0.75, 310.394685, 783.689504)" fill="none" stroke-linejoin="miter" d="M -0.00020502 8.002536 L 1172.281146 8.002536 " stroke="#29853a" stroke-width="16" stroke-opacity="1" stroke-miterlimit="4"/></svg>